<?xml version="1.0" standalone="no"?>
<!DOCTYPE svg PUBLIC "-//W3C//DTD SVG 1.1//EN" "http://www.w3.org/Graphics/SVG/1.1/DTD/svg11.dtd" >
<svg xmlns="http://www.w3.org/2000/svg" xmlns:xlink="http://www.w3.org/1999/xlink" version="1.1">
<metadata>
Created by FontForge 20170910 at Sun Oct 13 22:50:50 2013
 By Jimmy Wärting
Copyright (c) 2013 by Mattox Shuler. All rights reserved.
</metadata>
<defs>
<font id="Industry-Book" horiz-adv-x="639" >
  <font-face 
    font-family="Industry Book"
    font-weight="400"
    font-stretch="normal"
    units-per-em="1000"
    panose-1="0 0 5 0 0 0 0 0 0 0"
    ascent="800"
    descent="-200"
    x-height="540"
    cap-height="720"
    bbox="-150 -291 931 957"
    underline-thickness="50"
    underline-position="-100"
    stemh="66"
    stemv="72"
    unicode-range="U+0020-FB02"
  />
<missing-glyph horiz-adv-x="620" 
 />
    <glyph glyph-name="fi" unicode="fi" horiz-adv-x="613" 
d="M355 689h-89c-46 0 -74 -34 -74 -80v-69h163v-57h-162v-483h-68v483h-95v57h96v67c0 86 54 140 140 140h89v-58zM534 659h-78v88h78v-88zM529 540v-540h-68v540h68z" />
    <glyph glyph-name="fl" unicode="fl" horiz-adv-x="611" 
d="M355 689h-89c-46 0 -74 -34 -74 -80v-69h163v-57h-162v-483h-68v483h-95v57h96v67c0 86 54 140 140 140h89v-58zM461 747h66v-747h-66v747z" />
    <glyph glyph-name=".notdef" horiz-adv-x="620" 
 />
    <glyph glyph-name="A" unicode="A" horiz-adv-x="656" 
d="M476 210h-299l-73 -210h-74l257 720h82l257 -720h-78zM454 276l-126 367l-128 -367h254z" />
    <glyph glyph-name="Aacute" unicode="&#xc1;" horiz-adv-x="656" 
d="M326 786h-48l90 144h87zM476 210h-299l-73 -210h-74l257 720h82l257 -720h-78zM454 276l-126 367l-128 -367h254z" />
    <glyph glyph-name="Abreve" unicode="&#x102;" horiz-adv-x="656" 
d="M359 786h-70c-35 0 -64 29 -64 64v51h48v-47c0 -12 8 -22 20 -22h64c12 0 18 10 18 22v47h48v-51c0 -35 -29 -64 -64 -64zM476 210h-299l-73 -210h-74l257 720h82l257 -720h-78zM454 276l-126 367l-128 -367h254z" />
    <glyph glyph-name="Acircumflex" unicode="&#xc2;" horiz-adv-x="656" 
d="M223 786h-49l114 120h72l114 -120h-49l-101 76zM476 210h-299l-73 -210h-74l257 720h82l257 -720h-78zM454 276l-126 367l-128 -367h254z" />
    <glyph glyph-name="Adieresis" unicode="&#xc4;" horiz-adv-x="656" 
d="M278 790h-78v100h78v-100zM448 790h-78v100h78v-100zM476 210h-299l-73 -210h-74l257 720h82l257 -720h-78zM454 276l-126 367l-128 -367h254z" />
    <glyph glyph-name="Agrave" unicode="&#xc0;" horiz-adv-x="656" 
d="M320 786l-129 144h87l90 -144h-48zM476 210h-299l-73 -210h-74l257 720h82l257 -720h-78zM454 276l-126 367l-128 -367h254z" />
    <glyph glyph-name="Amacron" unicode="&#x100;" horiz-adv-x="656" 
d="M452 796h-256v60h256v-60zM476 210h-299l-73 -210h-74l257 720h82l257 -720h-78zM454 276l-126 367l-128 -367h254z" />
    <glyph glyph-name="Aogonek" unicode="&#x104;" horiz-adv-x="656" 
d="M656 -112v-56h-100c-49 0 -101 37 -58 98l50 70l-72 210h-299l-73 -210h-74l257 720h82l257 -720h-12l-50 -72c-19 -27 -14 -40 9 -40h83zM454 276l-126 367l-128 -367h254z" />
    <glyph glyph-name="Aring" unicode="&#xc5;" horiz-adv-x="656" 
d="M372 786h-96c-17 0 -34 17 -34 34v86c0 17 17 34 34 34h96c17 0 34 -17 34 -34v-86c0 -17 -17 -34 -34 -34zM278 892v-58c0 -7 5 -12 12 -12h68c7 0 12 5 12 12v58c0 7 -5 12 -12 12h-68c-7 0 -12 -5 -12 -12zM476 210h-299l-73 -210h-74l257 720h82l257 -720h-78z
M454 276l-126 367l-128 -367h254z" />
    <glyph glyph-name="Atilde" unicode="&#xc3;" horiz-adv-x="656" 
d="M238 786h-54l20 95c6 28 29 40 59 27l136 -58l19 59h56l-22 -96c-6 -27 -30 -38 -58 -26l-138 60zM476 210h-299l-73 -210h-74l257 720h82l257 -720h-78zM454 276l-126 367l-128 -367h254z" />
    <glyph glyph-name="AE" unicode="&#xc6;" horiz-adv-x="973" 
d="M537 654v-251h331v-66h-331v-271h381v-66h-453v210h-268l-105 -210h-80l367 720h539v-66h-381zM465 276v378h-46l-189 -378h235z" />
    <glyph glyph-name="B" unicode="B" horiz-adv-x="655" 
d="M96 720h334c90 0 144 -54 144 -144v-100c0 -55 -32 -90 -66 -108c38 -12 74 -53 74 -108v-116c0 -90 -54 -144 -144 -144h-342v720zM168 401h256c62 0 78 20 78 74v103c0 45 -27 76 -72 76h-262v-253zM168 66h270c45 0 72 31 72 76v120c0 46 -21 74 -86 74h-256v-270z
" />
    <glyph glyph-name="C" unicode="C" horiz-adv-x="633" 
d="M423 -4h-200c-90 0 -144 54 -144 144v440c0 90 54 144 144 144h200c90 0 144 -54 144 -144v-76h-72v78c0 45 -27 76 -72 76h-200c-45 0 -72 -31 -72 -76v-444c0 -45 27 -76 72 -76h200c45 0 72 31 72 76v78h72v-76c0 -90 -54 -144 -144 -144z" />
    <glyph glyph-name="Cacute" unicode="&#x106;" horiz-adv-x="633" 
d="M319 786h-48l90 144h87zM423 -4h-200c-90 0 -144 54 -144 144v440c0 90 54 144 144 144h200c90 0 144 -54 144 -144v-76h-72v78c0 45 -27 76 -72 76h-200c-45 0 -72 -31 -72 -76v-444c0 -45 27 -76 72 -76h200c45 0 72 31 72 76v78h72v-76c0 -90 -54 -144 -144 -144z" />
    <glyph glyph-name="Ccaron" unicode="&#x10c;" horiz-adv-x="633" 
d="M281 786h72l114 120h-49l-101 -76l-101 76h-49zM423 -4h-200c-90 0 -144 54 -144 144v440c0 90 54 144 144 144h200c90 0 144 -54 144 -144v-76h-72v78c0 45 -27 76 -72 76h-200c-45 0 -72 -31 -72 -76v-444c0 -45 27 -76 72 -76h200c45 0 72 31 72 76v78h72v-76
c0 -90 -54 -144 -144 -144z" />
    <glyph glyph-name="Ccedilla" unicode="&#xc7;" horiz-adv-x="633" 
d="M495 504v78c0 45 -27 76 -72 76h-200c-45 0 -72 -31 -72 -76v-444c0 -45 27 -76 72 -76h200c45 0 72 31 72 76v78h72v-76c0 -90 -54 -144 -144 -144h-67l-23 -46h36c50 0 84 -24 84 -74v-10c0 -50 -34 -74 -84 -74h-93l-50 48h151c20 0 22 6 22 26v10c0 20 -2 26 -22 26
h-123l48 94h-79c-90 0 -144 54 -144 144v440c0 90 54 144 144 144h200c90 0 144 -54 144 -144v-76h-72z" />
    <glyph glyph-name="Cdotaccent" unicode="&#x10a;" horiz-adv-x="633" 
d="M357 794h-80v94h80v-94zM423 -4h-200c-90 0 -144 54 -144 144v440c0 90 54 144 144 144h200c90 0 144 -54 144 -144v-76h-72v78c0 45 -27 76 -72 76h-200c-45 0 -72 -31 -72 -76v-444c0 -45 27 -76 72 -76h200c45 0 72 31 72 76v78h72v-76c0 -90 -54 -144 -144 -144z" />
    <glyph glyph-name="D" unicode="D" horiz-adv-x="664" 
d="M96 720h345c90 0 144 -54 144 -144v-432c0 -90 -54 -144 -144 -144h-345v720zM168 66h273c45 0 72 31 72 76v436c0 45 -27 76 -72 76h-273v-588z" />
    <glyph glyph-name="Eth" unicode="&#xd0;" horiz-adv-x="659" 
d="M96 720h345c90 0 144 -54 144 -144v-432c0 -90 -54 -144 -144 -144h-345v331h-89v66h89v323zM513 142v436c0 45 -27 76 -72 76h-273v-257h89v-66h-89v-265h273c45 0 72 31 72 76z" />
    <glyph glyph-name="Dcaron" unicode="&#x10e;" horiz-adv-x="664" 
d="M287 786h72l114 120h-49l-101 -76l-101 76h-49zM96 720h345c90 0 144 -54 144 -144v-432c0 -90 -54 -144 -144 -144h-345v720zM168 66h273c45 0 72 31 72 76v436c0 45 -27 76 -72 76h-273v-588z" />
    <glyph glyph-name="Dcroat" unicode="&#x110;" horiz-adv-x="659" 
d="M96 720h345c90 0 144 -54 144 -144v-432c0 -90 -54 -144 -144 -144h-345v331h-89v66h89v323zM513 142v436c0 45 -27 76 -72 76h-273v-257h89v-66h-89v-265h273c45 0 72 31 72 76z" />
    <glyph glyph-name="E" unicode="E" horiz-adv-x="594" 
d="M96 720h443v-66h-371v-253h313v-66h-313v-269h371v-66h-443v720z" />
    <glyph glyph-name="Eacute" unicode="&#xc9;" horiz-adv-x="594" 
d="M314 786h-48l90 144h87zM96 720h443v-66h-371v-253h313v-66h-313v-269h371v-66h-443v720z" />
    <glyph glyph-name="Ecaron" unicode="&#x11a;" horiz-adv-x="594" 
d="M276 786h72l114 120h-49l-101 -76l-101 76h-49zM96 720h443v-66h-371v-253h313v-66h-313v-269h371v-66h-443v720z" />
    <glyph glyph-name="Ecircumflex" unicode="&#xca;" horiz-adv-x="594" 
d="M211 786l101 76l101 -76h49l-114 120h-72l-114 -120h49zM96 720h443v-66h-371v-253h313v-66h-313v-269h371v-66h-443v720z" />
    <glyph glyph-name="Edieresis" unicode="&#xcb;" horiz-adv-x="594" 
d="M266 790h-78v100h78v-100zM436 790h-78v100h78v-100zM96 720h443v-66h-371v-253h313v-66h-313v-269h371v-66h-443v720z" />
    <glyph glyph-name="Edotaccent" unicode="&#x116;" horiz-adv-x="594" 
d="M352 794h-80v94h80v-94zM96 720h443v-66h-371v-253h313v-66h-313v-269h371v-66h-443v720z" />
    <glyph glyph-name="Egrave" unicode="&#xc8;" horiz-adv-x="594" 
d="M308 786h48l-90 144h-87zM96 720h443v-66h-371v-253h313v-66h-313v-269h371v-66h-443v720z" />
    <glyph glyph-name="Emacron" unicode="&#x112;" horiz-adv-x="594" 
d="M440 856v-60h-256v60h256zM96 720h443v-66h-371v-253h313v-66h-313v-269h371v-66h-443v720z" />
    <glyph glyph-name="Eogonek" unicode="&#x118;" horiz-adv-x="594" 
d="M581 -112v-56h-100c-49 0 -101 37 -58 98l50 70h-377v720h443v-66h-371v-253h313v-66h-313v-269h371v-66l-50 -72c-19 -27 -14 -40 9 -40h83z" />
    <glyph glyph-name="F" unicode="F" horiz-adv-x="577" 
d="M96 0v720h443v-66h-371v-261h313v-66h-313v-327h-72z" />
    <glyph glyph-name="G" unicode="G" horiz-adv-x="650" 
d="M502 514v68c0 45 -27 76 -72 76h-207c-45 0 -72 -31 -72 -76v-445c0 -45 27 -75 72 -75h207c45 0 72 31 72 76v165h-183v66h255v-229c0 -90 -54 -144 -144 -144h-207c-90 0 -144 54 -144 144v440c0 90 54 144 144 144h207c90 0 144 -54 144 -144v-66h-72z" />
    <glyph glyph-name="Gbreve" unicode="&#x11e;" horiz-adv-x="650" 
d="M422 901v-51c0 -35 -29 -64 -64 -64h-70c-35 0 -64 29 -64 64v51h48v-47c0 -12 8 -22 20 -22h64c12 0 18 10 18 22v47h48zM502 514v68c0 45 -27 76 -72 76h-207c-45 0 -72 -31 -72 -76v-445c0 -45 27 -75 72 -75h207c45 0 72 31 72 76v165h-183v66h255v-229
c0 -90 -54 -144 -144 -144h-207c-90 0 -144 54 -144 144v440c0 90 54 144 144 144h207c90 0 144 -54 144 -144v-66h-72z" />
    <glyph glyph-name="Gcommaaccent" unicode="&#x122;" horiz-adv-x="650" 
d="M502 514v68c0 45 -27 76 -72 76h-207c-45 0 -72 -31 -72 -76v-445c0 -45 27 -75 72 -75h207c45 0 72 31 72 76v165h-183v66h255v-229c0 -90 -54 -144 -144 -144h-207c-90 0 -144 54 -144 144v440c0 90 54 144 144 144h207c90 0 144 -54 144 -144v-66h-72zM371 -70v-80
c0 -24 -25 -60 -37 -84l-29 -57h-43l60 123h-39v98h88z" />
    <glyph glyph-name="Gdotaccent" unicode="&#x120;" horiz-adv-x="650" 
d="M363 794h-80v94h80v-94zM502 514v68c0 45 -27 76 -72 76h-207c-45 0 -72 -31 -72 -76v-445c0 -45 27 -75 72 -75h207c45 0 72 31 72 76v165h-183v66h255v-229c0 -90 -54 -144 -144 -144h-207c-90 0 -144 54 -144 144v440c0 90 54 144 144 144h207c90 0 144 -54 144 -144
v-66h-72z" />
    <glyph glyph-name="H" unicode="H" horiz-adv-x="694" 
d="M96 0v720h72v-319h358v319h72v-720h-72v335h-358v-335h-72z" />
    <glyph glyph-name="Hbar" unicode="&#x126;" horiz-adv-x="692" 
d="M654 551h-58v-551h-72v337h-356v-337h-72v551h-58v56h58v113h72v-113h356v113h72v-113h58v-56zM524 551h-356v-148h356v148z" />
    <glyph glyph-name="I" unicode="I" horiz-adv-x="264" 
d="M96 0v720h72v-720h-72z" />
    <glyph glyph-name="IJ" unicode="&#x132;" horiz-adv-x="855" 
d="M96 0v720h72v-720h-72zM770 720v-580c0 -90 -54 -144 -144 -144h-174c-90 0 -144 54 -144 144v112h72v-114c0 -45 27 -76 72 -76h174c45 0 72 31 72 76v582h72z" />
    <glyph glyph-name="Iacute" unicode="&#xcd;" horiz-adv-x="264" 
d="M130 786h-48l90 144h87zM96 0v720h72v-720h-72z" />
    <glyph glyph-name="Icircumflex" unicode="&#xce;" horiz-adv-x="264" 
d="M27 786l101 76l101 -76h49l-114 120h-72l-114 -120h49zM96 0v720h72v-720h-72z" />
    <glyph glyph-name="Idieresis" unicode="&#xcf;" horiz-adv-x="264" 
d="M82 790h-78v100h78v-100zM252 790h-78v100h78v-100zM96 0v720h72v-720h-72z" />
    <glyph glyph-name="Idotaccent" unicode="&#x130;" horiz-adv-x="264" 
d="M168 794h-80v94h80v-94zM96 0v720h72v-720h-72z" />
    <glyph glyph-name="Igrave" unicode="&#xcc;" horiz-adv-x="264" 
d="M124 786h48l-90 144h-87zM96 0v720h72v-720h-72z" />
    <glyph glyph-name="Imacron" unicode="&#x12a;" horiz-adv-x="264" 
d="M256 856v-60h-256v60h256zM96 0v720h72v-720h-72z" />
    <glyph glyph-name="Iogonek" unicode="&#x12e;" horiz-adv-x="264" 
d="M210 -112v-56h-100c-49 0 -101 37 -58 98l50 70h-6v720h72v-720l-50 -72c-19 -27 -14 -40 9 -40h83z" />
    <glyph glyph-name="J" unicode="J" horiz-adv-x="591" 
d="M506 720v-580c0 -90 -54 -144 -144 -144h-174c-90 0 -144 54 -144 144v112h72v-114c0 -45 27 -76 72 -76h174c45 0 72 31 72 76v582h72z" />
    <glyph glyph-name="K" unicode="K" horiz-adv-x="667" 
d="M555 0l-238 370l-149 -173v-197h-72v720h72v-430l359 430h90l-255 -297l277 -423h-84z" />
    <glyph glyph-name="Kcommaaccent" unicode="&#x136;" horiz-adv-x="667" 
d="M639 0h-84l-238 370l-149 -173v-197h-72v720h72v-430l359 430h90l-255 -297zM290 -70h88v-80c0 -24 -25 -60 -37 -84l-29 -57h-43l60 123h-39v98z" />
    <glyph glyph-name="L" unicode="L" horiz-adv-x="554" 
d="M96 720h72v-654h346v-66h-418v720z" />
    <glyph glyph-name="Lacute" unicode="&#x139;" horiz-adv-x="554" 
d="M132 786h-48l90 144h87zM96 720h72v-654h346v-66h-418v720z" />
    <glyph glyph-name="Lcaron" unicode="&#x13d;" horiz-adv-x="554" 
d="M354 747v-80c0 -24 -25 -60 -37 -84l-29 -57h-43l60 123h-39v98h88zM96 720h72v-654h346v-66h-418v720z" />
    <glyph glyph-name="Lcommaaccent" unicode="&#x13b;" horiz-adv-x="554" 
d="M96 720h72v-654h346v-66h-418v720zM359 -70v-80c0 -24 -25 -60 -37 -84l-29 -57h-43l60 123h-39v98h88z" />
    <glyph glyph-name="Ldot" unicode="&#x13f;" horiz-adv-x="554" 
d="M96 720h72v-654h346v-66h-418v720zM457 321h-88v98h88v-98z" />
    <glyph glyph-name="Lslash" unicode="&#x141;" horiz-adv-x="563" 
d="M514 66v-66h-418v338l-67 -28v69l67 28v313h72v-284l129 53v-69l-129 -53v-301h346z" />
    <glyph glyph-name="M" unicode="M" horiz-adv-x="839" 
d="M743 720v-720h-68v617l-223 -502h-65l-223 502v-617h-68v720h88l234 -522l237 522h88z" />
    <glyph glyph-name="N" unicode="N" horiz-adv-x="708" 
d="M546 720h66v-720h-86l-364 628v-628h-66v720h86l364 -626v626z" />
    <glyph glyph-name="Nacute" unicode="&#x143;" horiz-adv-x="708" 
d="M357 786h-48l90 144h87zM546 720h66v-720h-86l-364 628v-628h-66v720h86l364 -626v626z" />
    <glyph glyph-name="Ncaron" unicode="&#x147;" horiz-adv-x="708" 
d="M319 786h72l114 120h-49l-101 -76l-101 76h-49zM546 720h66v-720h-86l-364 628v-628h-66v720h86l364 -626v626z" />
    <glyph glyph-name="Ncommaaccent" unicode="&#x145;" horiz-adv-x="708" 
d="M546 720h66v-720h-86l-364 628v-628h-66v720h86l364 -626v626zM398 -70v-80c0 -24 -25 -60 -37 -84l-29 -57h-43l60 123h-39v98h88z" />
    <glyph glyph-name="Eng" unicode="&#x14a;" horiz-adv-x="708" 
d="M612 720v-772c0 -90 -54 -144 -144 -144h-64v65h72c45 0 72 32 72 77v43l-386 639v-628h-66v720h86l364 -610v610h66z" />
    <glyph glyph-name="Ntilde" unicode="&#xd1;" horiz-adv-x="708" 
d="M269 786l18 61l138 -60c28 -12 52 -1 58 26l22 96h-56l-19 -59l-136 58c-30 13 -53 1 -59 -27l-20 -95h54zM546 720h66v-720h-86l-364 628v-628h-66v720h86l364 -626v626z" />
    <glyph glyph-name="O" unicode="O" horiz-adv-x="659" 
d="M436 -4h-213c-90 0 -144 54 -144 144v440c0 90 54 144 144 144h213c90 0 144 -54 144 -144v-440c0 -90 -54 -144 -144 -144zM151 582v-444c0 -45 27 -76 72 -76h213c45 0 72 31 72 76v444c0 45 -27 76 -72 76h-213c-45 0 -72 -31 -72 -76z" />
    <glyph glyph-name="Oacute" unicode="&#xd3;" horiz-adv-x="659" 
d="M328 786h-48l90 144h87zM436 -4h-213c-90 0 -144 54 -144 144v440c0 90 54 144 144 144h213c90 0 144 -54 144 -144v-440c0 -90 -54 -144 -144 -144zM151 582v-444c0 -45 27 -76 72 -76h213c45 0 72 31 72 76v444c0 45 -27 76 -72 76h-213c-45 0 -72 -31 -72 -76z" />
    <glyph glyph-name="Ocircumflex" unicode="&#xd4;" horiz-adv-x="659" 
d="M225 786l101 76l101 -76h49l-114 120h-72l-114 -120h49zM436 -4h-213c-90 0 -144 54 -144 144v440c0 90 54 144 144 144h213c90 0 144 -54 144 -144v-440c0 -90 -54 -144 -144 -144zM151 582v-444c0 -45 27 -76 72 -76h213c45 0 72 31 72 76v444c0 45 -27 76 -72 76h-213
c-45 0 -72 -31 -72 -76z" />
    <glyph glyph-name="Odieresis" unicode="&#xd6;" horiz-adv-x="659" 
d="M280 790h-78v100h78v-100zM450 790h-78v100h78v-100zM436 -4h-213c-90 0 -144 54 -144 144v440c0 90 54 144 144 144h213c90 0 144 -54 144 -144v-440c0 -90 -54 -144 -144 -144zM151 582v-444c0 -45 27 -76 72 -76h213c45 0 72 31 72 76v444c0 45 -27 76 -72 76h-213
c-45 0 -72 -31 -72 -76z" />
    <glyph glyph-name="Ograve" unicode="&#xd2;" horiz-adv-x="659" 
d="M322 786h48l-90 144h-87zM436 -4h-213c-90 0 -144 54 -144 144v440c0 90 54 144 144 144h213c90 0 144 -54 144 -144v-440c0 -90 -54 -144 -144 -144zM151 582v-444c0 -45 27 -76 72 -76h213c45 0 72 31 72 76v444c0 45 -27 76 -72 76h-213c-45 0 -72 -31 -72 -76z" />
    <glyph glyph-name="Ohungarumlaut" unicode="&#x150;" horiz-adv-x="659" 
d="M379 931l-115 -145h-72l115 145h72zM522 931l-115 -145h-72l115 145h72zM436 -4h-213c-90 0 -144 54 -144 144v440c0 90 54 144 144 144h213c90 0 144 -54 144 -144v-440c0 -90 -54 -144 -144 -144zM151 582v-444c0 -45 27 -76 72 -76h213c45 0 72 31 72 76v444
c0 45 -27 76 -72 76h-213c-45 0 -72 -31 -72 -76z" />
    <glyph glyph-name="Omacron" unicode="&#x14c;" horiz-adv-x="659" 
d="M454 856v-60h-256v60h256zM436 -4h-213c-90 0 -144 54 -144 144v440c0 90 54 144 144 144h213c90 0 144 -54 144 -144v-440c0 -90 -54 -144 -144 -144zM151 582v-444c0 -45 27 -76 72 -76h213c45 0 72 31 72 76v444c0 45 -27 76 -72 76h-213c-45 0 -72 -31 -72 -76z" />
    <glyph glyph-name="Oslash" unicode="&#xd8;" horiz-adv-x="659" 
d="M223 724h213c90 0 144 -54 144 -144v-440c0 -90 -54 -144 -144 -144h-213c-90 0 -144 54 -144 144v440c0 90 54 144 144 144zM151 582v-444c0 -10 1 -20 4 -29l291 548l-10 1h-213c-45 0 -72 -31 -72 -76zM508 138v444c0 12 -2 24 -6 34l-293 -553c4 -1 9 -1 14 -1h213
c45 0 72 31 72 76z" />
    <glyph glyph-name="Otilde" unicode="&#xd5;" horiz-adv-x="659" 
d="M240 786l18 61l138 -60c28 -12 52 -1 58 26l22 96h-56l-19 -59l-136 58c-30 13 -53 1 -59 -27l-20 -95h54zM436 -4h-213c-90 0 -144 54 -144 144v440c0 90 54 144 144 144h213c90 0 144 -54 144 -144v-440c0 -90 -54 -144 -144 -144zM151 582v-444c0 -45 27 -76 72 -76
h213c45 0 72 31 72 76v444c0 45 -27 76 -72 76h-213c-45 0 -72 -31 -72 -76z" />
    <glyph glyph-name="OE" unicode="&#x152;" horiz-adv-x="986" 
d="M550 654v-251h331v-66h-331v-271h381v-66h-708c-90 0 -144 54 -144 144v432c0 90 54 144 144 144h708v-66h-381zM478 86v548c0 13 -7 20 -20 20h-235c-45 0 -72 -31 -72 -76v-436c0 -45 27 -76 72 -76h235c13 0 20 7 20 20z" />
    <glyph glyph-name="P" unicode="P" horiz-adv-x="632" 
d="M96 720h338c90 0 144 -54 144 -144v-150c0 -90 -54 -144 -144 -144h-266v-282h-72v720zM168 348h266c45 0 72 31 72 76v154c0 45 -27 76 -72 76h-266v-306z" />
    <glyph glyph-name="Thorn" unicode="&#xde;" horiz-adv-x="632" 
d="M168 720v-140h266c90 0 144 -54 144 -144v-142c0 -90 -54 -144 -144 -144h-266v-150h-72v720h72zM168 216h266c45 0 72 31 72 76v146c0 45 -27 76 -72 76h-266v-298z" />
    <glyph glyph-name="Q" unicode="Q" horiz-adv-x="659" 
d="M223 724h213c90 0 144 -54 144 -144v-440c0 -80 -43 -132 -115 -142l44 -96h-65l-44 94h-177c-90 0 -144 54 -144 144v440c0 90 54 144 144 144zM508 138v444c0 45 -27 76 -72 76h-213c-45 0 -72 -31 -72 -76v-444c0 -45 27 -76 72 -76h147l-51 110h65l51 -110h1
c45 0 72 31 72 76z" />
    <glyph glyph-name="R" unicode="R" horiz-adv-x="656" 
d="M599 0h-79l-156 299h-196v-299h-72v720h337c90 0 144 -54 144 -144v-133c0 -92 -50 -140 -134 -144zM168 365h265c45 0 72 31 72 76v137c0 45 -27 76 -72 76h-265v-289z" />
    <glyph glyph-name="Racute" unicode="&#x154;" horiz-adv-x="656" 
d="M326 786h-48l90 144h87zM599 0h-79l-156 299h-196v-299h-72v720h337c90 0 144 -54 144 -144v-133c0 -92 -50 -140 -134 -144zM168 365h265c45 0 72 31 72 76v137c0 45 -27 76 -72 76h-265v-289z" />
    <glyph glyph-name="Rcaron" unicode="&#x158;" horiz-adv-x="656" 
d="M288 786l-114 120h49l101 -76l101 76h49l-114 -120h-72zM599 0h-79l-156 299h-196v-299h-72v720h337c90 0 144 -54 144 -144v-133c0 -92 -50 -140 -134 -144zM168 365h265c45 0 72 31 72 76v137c0 45 -27 76 -72 76h-265v-289z" />
    <glyph glyph-name="Rcommaaccent" unicode="&#x156;" horiz-adv-x="656" 
d="M599 0h-79l-156 299h-196v-299h-72v720h337c90 0 144 -54 144 -144v-133c0 -92 -50 -140 -134 -144zM168 365h265c45 0 72 31 72 76v137c0 45 -27 76 -72 76h-265v-289zM284 -70h88v-80c0 -24 -25 -60 -37 -84l-29 -57h-43l60 123h-39v98z" />
    <glyph glyph-name="S" unicode="S" horiz-adv-x="627" 
d="M470 519v63c0 45 -27 80 -72 80h-176c-45 0 -72 -35 -72 -80v-77c0 -61 35 -71 72 -80l186 -45c88 -21 144 -49 144 -144v-96c0 -90 -54 -144 -144 -144h-188c-90 0 -144 54 -144 144v71h72v-73c0 -45 27 -80 72 -80h188c45 0 72 35 72 80v90c0 61 -27 69 -72 80l-186 45
c-88 21 -144 49 -144 144v83c0 90 54 144 144 144h176c90 0 144 -54 144 -144v-61h-72z" />
    <glyph glyph-name="Sacute" unicode="&#x15a;" horiz-adv-x="627" 
d="M312 786h-48l90 144h87zM470 519v63c0 45 -27 80 -72 80h-176c-45 0 -72 -35 -72 -80v-77c0 -61 35 -71 72 -80l186 -45c88 -21 144 -49 144 -144v-96c0 -90 -54 -144 -144 -144h-188c-90 0 -144 54 -144 144v71h72v-73c0 -45 27 -80 72 -80h188c45 0 72 35 72 80v90
c0 61 -27 69 -72 80l-186 45c-88 21 -144 49 -144 144v83c0 90 54 144 144 144h176c90 0 144 -54 144 -144v-61h-72z" />
    <glyph glyph-name="Scaron" unicode="&#x160;" horiz-adv-x="627" 
d="M274 786h72l114 120h-49l-101 -76l-101 76h-49zM470 519v63c0 45 -27 80 -72 80h-176c-45 0 -72 -35 -72 -80v-77c0 -61 35 -71 72 -80l186 -45c88 -21 144 -49 144 -144v-96c0 -90 -54 -144 -144 -144h-188c-90 0 -144 54 -144 144v71h72v-73c0 -45 27 -80 72 -80h188
c45 0 72 35 72 80v90c0 61 -27 69 -72 80l-186 45c-88 21 -144 49 -144 144v83c0 90 54 144 144 144h176c90 0 144 -54 144 -144v-61h-72z" />
    <glyph glyph-name="Scedilla" unicode="&#x15e;" horiz-adv-x="627" 
d="M222 425l186 -45c88 -21 144 -49 144 -144v-96c0 -90 -54 -144 -144 -144h-68l-23 -46h36c50 0 84 -24 84 -74v-10c0 -50 -34 -74 -84 -74h-93l-50 48h151c20 0 22 6 22 26v10c0 20 -2 26 -22 26h-123l48 94h-66c-90 0 -144 54 -144 144v71h72v-73c0 -45 27 -80 72 -80
h188c45 0 72 35 72 80v90c0 61 -27 69 -72 80l-186 45c-88 21 -144 49 -144 144v83c0 90 54 144 144 144h176c90 0 144 -54 144 -144v-61h-72v63c0 45 -27 80 -72 80h-176c-45 0 -72 -35 -72 -80v-77c0 -61 35 -71 72 -80z" />
    <glyph glyph-name="T" unicode="T" horiz-adv-x="566" 
d="M534 654h-215v-654h-72v654h-215v66h502v-66z" />
    <glyph glyph-name="Tbar" unicode="&#x166;" horiz-adv-x="566" 
d="M407 856v-60h-256v60h256zM534 654h-215v-654h-72v654h-215v66h502v-66z" />
    <glyph glyph-name="Tcaron" unicode="&#x164;" horiz-adv-x="566" 
d="M243 786h72l114 120h-49l-101 -76l-101 76h-49zM534 654h-215v-654h-72v654h-215v66h502v-66z" />
    <glyph glyph-name="Tcedilla" unicode="&#x162;" horiz-adv-x="566" 
d="M311 0l-25 -50h36c50 0 84 -24 84 -74v-10c0 -50 -34 -74 -84 -74h-93l-50 48h151c20 0 22 6 22 26v10c0 20 -2 26 -22 26h-123l50 98h-10v654h-215v66h502v-66h-215v-654h-8z" />
    <glyph glyph-name="U" unicode="U" horiz-adv-x="660" 
d="M575 720v-580c0 -90 -54 -144 -144 -144h-202c-90 0 -144 54 -144 144v580h72v-582c0 -45 27 -76 72 -76h202c45 0 72 31 72 76v582h72z" />
    <glyph glyph-name="Uacute" unicode="&#xda;" horiz-adv-x="660" 
d="M328 786h-48l90 144h87zM575 720v-580c0 -90 -54 -144 -144 -144h-202c-90 0 -144 54 -144 144v580h72v-582c0 -45 27 -76 72 -76h202c45 0 72 31 72 76v582h72z" />
    <glyph glyph-name="Ucircumflex" unicode="&#xdb;" horiz-adv-x="660" 
d="M225 786l101 76l101 -76h49l-114 120h-72l-114 -120h49zM575 720v-580c0 -90 -54 -144 -144 -144h-202c-90 0 -144 54 -144 144v580h72v-582c0 -45 27 -76 72 -76h202c45 0 72 31 72 76v582h72z" />
    <glyph glyph-name="Udieresis" unicode="&#xdc;" horiz-adv-x="660" 
d="M280 790h-78v100h78v-100zM450 790h-78v100h78v-100zM575 720v-580c0 -90 -54 -144 -144 -144h-202c-90 0 -144 54 -144 144v580h72v-582c0 -45 27 -76 72 -76h202c45 0 72 31 72 76v582h72z" />
    <glyph glyph-name="Ugrave" unicode="&#xd9;" horiz-adv-x="660" 
d="M322 786h48l-90 144h-87zM575 720v-580c0 -90 -54 -144 -144 -144h-202c-90 0 -144 54 -144 144v580h72v-582c0 -45 27 -76 72 -76h202c45 0 72 31 72 76v582h72z" />
    <glyph glyph-name="Uhungarumlaut" unicode="&#x170;" horiz-adv-x="660" 
d="M379 931l-115 -145h-72l115 145h72zM522 931l-115 -145h-72l115 145h72zM575 720v-580c0 -90 -54 -144 -144 -144h-202c-90 0 -144 54 -144 144v580h72v-582c0 -45 27 -76 72 -76h202c45 0 72 31 72 76v582h72z" />
    <glyph glyph-name="Umacron" unicode="&#x16a;" horiz-adv-x="660" 
d="M454 856v-60h-256v60h256zM575 720v-580c0 -90 -54 -144 -144 -144h-202c-90 0 -144 54 -144 144v580h72v-582c0 -45 27 -76 72 -76h202c45 0 72 31 72 76v582h72z" />
    <glyph glyph-name="Uogonek" unicode="&#x172;" horiz-adv-x="660" 
d="M575 720v-580c0 -90 -54 -144 -144 -144h-63l-47 -68c-19 -27 -14 -40 9 -40h83v-56h-100c-49 0 -101 37 -58 98l47 66h-73c-90 0 -144 54 -144 144v580h72v-582c0 -45 27 -76 72 -76h202c45 0 72 31 72 76v582h72z" />
    <glyph glyph-name="Uring" unicode="&#x16e;" horiz-adv-x="660" 
d="M374 786h-96c-17 0 -34 17 -34 34v86c0 17 17 34 34 34h96c17 0 34 -17 34 -34v-86c0 -17 -17 -34 -34 -34zM280 892v-58c0 -7 5 -12 12 -12h68c7 0 12 5 12 12v58c0 7 -5 12 -12 12h-68c-7 0 -12 -5 -12 -12zM575 720v-580c0 -90 -54 -144 -144 -144h-202
c-90 0 -144 54 -144 144v580h72v-582c0 -45 27 -76 72 -76h202c45 0 72 31 72 76v582h72z" />
    <glyph glyph-name="V" unicode="V" horiz-adv-x="624" 
d="M594 720l-241 -720h-82l-241 720h78l204 -641l208 641h74z" />
    <glyph glyph-name="W" unicode="W" horiz-adv-x="904" 
d="M677 0h-74l-150 601l-150 -601h-76l-197 720h76l159 -622l155 622h66l155 -622l159 622h74z" />
    <glyph glyph-name="Wacute" unicode="&#x1e82;" horiz-adv-x="904" 
d="M451 786h-48l90 144h87zM677 0h-74l-150 601l-150 -601h-76l-197 720h76l159 -622l155 622h66l155 -622l159 622h74z" />
    <glyph glyph-name="Wcircumflex" unicode="&#x174;" horiz-adv-x="904" 
d="M348 786l101 76l101 -76h49l-114 120h-72l-114 -120h49zM677 0h-74l-150 601l-150 -601h-76l-197 720h76l159 -622l155 622h66l155 -622l159 622h74z" />
    <glyph glyph-name="Wdieresis" unicode="&#x1e84;" horiz-adv-x="904" 
d="M403 790h-78v100h78v-100zM573 790h-78v100h78v-100zM677 0h-74l-150 601l-150 -601h-76l-197 720h76l159 -622l155 622h66l155 -622l159 622h74z" />
    <glyph glyph-name="Wgrave" unicode="&#x1e80;" horiz-adv-x="904" 
d="M445 786h48l-90 144h-87zM677 0h-74l-150 601l-150 -601h-76l-197 720h76l159 -622l155 622h66l155 -622l159 622h74z" />
    <glyph glyph-name="X" unicode="X" horiz-adv-x="614" 
d="M503 0l-200 308l-199 -308h-76l237 367l-229 353h83l191 -294l190 294h78l-229 -355l237 -365h-83z" />
    <glyph glyph-name="Y" unicode="Y" horiz-adv-x="602" 
d="M337 0h-72v268l-249 452h82l203 -377l203 377h82l-249 -452v-268z" />
    <glyph glyph-name="Yacute" unicode="&#xdd;" horiz-adv-x="602" 
d="M299 786h-48l90 144h87zM337 0h-72v268l-249 452h82l203 -377l203 377h82l-249 -452v-268z" />
    <glyph glyph-name="Ycircumflex" unicode="&#x176;" horiz-adv-x="602" 
d="M196 786l101 76l101 -76h49l-114 120h-72l-114 -120h49zM337 0h-72v268l-249 452h82l203 -377l203 377h82l-249 -452v-268z" />
    <glyph glyph-name="Ydieresis" unicode="&#x178;" horiz-adv-x="602" 
d="M251 790h-78v100h78v-100zM421 790h-78v100h78v-100zM337 0h-72v268l-249 452h82l203 -377l203 377h82l-249 -452v-268z" />
    <glyph glyph-name="Ygrave" unicode="&#x1ef2;" horiz-adv-x="602" 
d="M293 786h48l-90 144h-87zM337 0h-72v268l-249 452h82l203 -377l203 377h82l-249 -452v-268z" />
    <glyph glyph-name="Z" unicode="Z" horiz-adv-x="596" 
d="M59 53l391 601h-374v66h461v-53l-391 -601h389v-66h-476v53z" />
    <glyph glyph-name="Zacute" unicode="&#x179;" horiz-adv-x="596" 
d="M305 786h-48l90 144h87zM59 53l391 601h-374v66h461v-53l-391 -601h389v-66h-476v53z" />
    <glyph glyph-name="Zcaron" unicode="&#x17d;" horiz-adv-x="596" 
d="M267 786h72l114 120h-49l-101 -76l-101 76h-49zM59 53l391 601h-374v66h461v-53l-391 -601h389v-66h-476v53z" />
    <glyph glyph-name="Zdotaccent" unicode="&#x17b;" horiz-adv-x="596" 
d="M343 794h-80v94h80v-94zM59 53l391 601h-374v66h461v-53l-391 -601h389v-66h-476v53z" />
    <glyph glyph-name="Q.ss01" horiz-adv-x="659" 
d="M223 724h213c90 0 144 -54 144 -144v-440c0 -90 -54 -144 -144 -144h-70v-119h-72v119h-71c-90 0 -144 54 -144 144v440c0 90 54 144 144 144zM508 138v444c0 45 -27 76 -72 76h-213c-45 0 -72 -31 -72 -76v-444c0 -45 27 -76 72 -76h213c45 0 72 31 72 76z" />
    <glyph glyph-name="a" unicode="a" horiz-adv-x="542" 
d="M208 544h122c86 0 140 -54 140 -140v-404h-68v74l-54 -40c-33 -24 -67 -38 -108 -38h-50c-86 0 -140 54 -140 140v48c0 86 54 140 140 140h27c49 -1 110 -7 185 -19v101c0 46 -28 80 -74 80h-118c-46 0 -74 -34 -74 -80v-7h-68v5c0 86 54 140 140 140zM402 268h-210
c-46 0 -74 -34 -74 -80v-52c0 -46 28 -80 74 -80h48c42 0 75 12 108 31l54 32v149z" />
    <glyph glyph-name="aacute" unicode="&#xe1;" horiz-adv-x="542" 
d="M273 612h-48l90 144h87zM208 544h122c86 0 140 -54 140 -140v-404h-68v74l-54 -40c-33 -24 -67 -38 -108 -38h-50c-86 0 -140 54 -140 140v48c0 86 54 140 140 140h27c49 -1 110 -7 185 -19v101c0 46 -28 80 -74 80h-118c-46 0 -74 -34 -74 -80v-7h-68v5
c0 86 54 140 140 140zM402 268h-210c-46 0 -74 -34 -74 -80v-52c0 -46 28 -80 74 -80h48c42 0 75 12 108 31l54 32v149z" />
    <glyph glyph-name="abreve" unicode="&#x103;" horiz-adv-x="542" 
d="M370 727v-51c0 -35 -29 -64 -64 -64h-70c-35 0 -64 29 -64 64v51h48v-47c0 -12 8 -22 20 -22h64c12 0 18 10 18 22v47h48zM208 544h122c86 0 140 -54 140 -140v-404h-68v74l-54 -40c-33 -24 -67 -38 -108 -38h-50c-86 0 -140 54 -140 140v48c0 86 54 140 140 140h27
c49 -1 110 -7 185 -19v101c0 46 -28 80 -74 80h-118c-46 0 -74 -34 -74 -80v-7h-68v5c0 86 54 140 140 140zM402 268h-210c-46 0 -74 -34 -74 -80v-52c0 -46 28 -80 74 -80h48c42 0 75 12 108 31l54 32v149z" />
    <glyph glyph-name="acircumflex" unicode="&#xe2;" horiz-adv-x="542" 
d="M170 612l101 76l101 -76h49l-114 120h-72l-114 -120h49zM208 544h122c86 0 140 -54 140 -140v-404h-68v74l-54 -40c-33 -24 -67 -38 -108 -38h-50c-86 0 -140 54 -140 140v48c0 86 54 140 140 140h27c49 -1 110 -7 185 -19v101c0 46 -28 80 -74 80h-118
c-46 0 -74 -34 -74 -80v-7h-68v5c0 86 54 140 140 140zM402 268h-210c-46 0 -74 -34 -74 -80v-52c0 -46 28 -80 74 -80h48c42 0 75 12 108 31l54 32v149z" />
    <glyph glyph-name="adieresis" unicode="&#xe4;" horiz-adv-x="542" 
d="M225 616h-78v100h78v-100zM395 616h-78v100h78v-100zM208 544h122c86 0 140 -54 140 -140v-404h-68v74l-54 -40c-33 -24 -67 -38 -108 -38h-50c-86 0 -140 54 -140 140v48c0 86 54 140 140 140h27c49 -1 110 -7 185 -19v101c0 46 -28 80 -74 80h-118
c-46 0 -74 -34 -74 -80v-7h-68v5c0 86 54 140 140 140zM402 268h-210c-46 0 -74 -34 -74 -80v-52c0 -46 28 -80 74 -80h48c42 0 75 12 108 31l54 32v149z" />
    <glyph glyph-name="agrave" unicode="&#xe0;" horiz-adv-x="542" 
d="M267 612h48l-90 144h-87zM208 544h122c86 0 140 -54 140 -140v-404h-68v74l-54 -40c-33 -24 -67 -38 -108 -38h-50c-86 0 -140 54 -140 140v48c0 86 54 140 140 140h27c49 -1 110 -7 185 -19v101c0 46 -28 80 -74 80h-118c-46 0 -74 -34 -74 -80v-7h-68v5
c0 86 54 140 140 140zM402 268h-210c-46 0 -74 -34 -74 -80v-52c0 -46 28 -80 74 -80h48c42 0 75 12 108 31l54 32v149z" />
    <glyph glyph-name="amacron" unicode="&#x101;" horiz-adv-x="542" 
d="M399 682v-60h-256v60h256zM208 544h122c86 0 140 -54 140 -140v-404h-68v74l-54 -40c-33 -24 -67 -38 -108 -38h-50c-86 0 -140 54 -140 140v48c0 86 54 140 140 140h27c49 -1 110 -7 185 -19v101c0 46 -28 80 -74 80h-118c-46 0 -74 -34 -74 -80v-7h-68v5
c0 86 54 140 140 140zM402 268h-210c-46 0 -74 -34 -74 -80v-52c0 -46 28 -80 74 -80h48c42 0 75 12 108 31l54 32v149z" />
    <glyph glyph-name="aogonek" unicode="&#x105;" horiz-adv-x="542" 
d="M512 -112v-56h-100c-49 0 -101 37 -58 98l50 70h-2v74l-54 -40c-33 -24 -67 -38 -108 -38h-50c-86 0 -140 54 -140 140v48c0 86 54 140 140 140h27c49 -1 110 -7 185 -19v101c0 46 -28 80 -74 80h-118c-46 0 -74 -34 -74 -80v-7h-68v5c0 86 54 140 140 140h122
c86 0 140 -54 140 -140v-404l-50 -72c-19 -27 -14 -40 9 -40h83zM402 268h-210c-46 0 -74 -34 -74 -80v-52c0 -46 28 -80 74 -80h48c42 0 75 12 108 31l54 32v149z" />
    <glyph glyph-name="aring" unicode="&#xe5;" horiz-adv-x="542" 
d="M319 612h-96c-17 0 -34 17 -34 34v86c0 17 17 34 34 34h96c17 0 34 -17 34 -34v-86c0 -17 -17 -34 -34 -34zM225 718v-58c0 -7 5 -12 12 -12h68c7 0 12 5 12 12v58c0 7 -5 12 -12 12h-68c-7 0 -12 -5 -12 -12zM208 544h122c86 0 140 -54 140 -140v-404h-68v74l-54 -40
c-33 -24 -67 -38 -108 -38h-50c-86 0 -140 54 -140 140v48c0 86 54 140 140 140h27c49 -1 110 -7 185 -19v101c0 46 -28 80 -74 80h-118c-46 0 -74 -34 -74 -80v-7h-68v5c0 86 54 140 140 140zM402 268h-210c-46 0 -74 -34 -74 -80v-52c0 -46 28 -80 74 -80h48
c42 0 75 12 108 31l54 32v149z" />
    <glyph glyph-name="atilde" unicode="&#xe3;" horiz-adv-x="542" 
d="M185 612l18 61l138 -60c28 -12 52 -1 58 26l22 96h-56l-19 -59l-136 58c-30 13 -53 1 -59 -27l-20 -95h54zM208 544h122c86 0 140 -54 140 -140v-404h-68v74l-54 -40c-33 -24 -67 -38 -108 -38h-50c-86 0 -140 54 -140 140v48c0 86 54 140 140 140h27
c49 -1 110 -7 185 -19v101c0 46 -28 80 -74 80h-118c-46 0 -74 -34 -74 -80v-7h-68v5c0 86 54 140 140 140zM402 268h-210c-46 0 -74 -34 -74 -80v-52c0 -46 28 -80 74 -80h48c42 0 75 12 108 31l54 32v149z" />
    <glyph glyph-name="ae" unicode="&#xe6;" horiz-adv-x="878" 
d="M470 255v-119c0 -46 28 -80 74 -80h132c46 0 74 34 74 80v33h68v-33c0 -86 -54 -140 -140 -140h-136c-65 0 -112 31 -131 83l-72 -54c-31 -23 -67 -29 -99 -29h-50c-86 0 -140 54 -140 140v48c0 86 54 140 140 140h27c49 -1 110 -7 185 -19v99c0 46 -28 80 -74 80h-120
c-46 0 -74 -34 -74 -80v-5h-68v5c0 86 54 140 140 140h124c45 0 82 -15 106 -42c24 27 61 42 106 42h136c86 0 140 -54 140 -140v-149h-348zM676 484h-132c-46 0 -74 -34 -74 -80v-91h280v91c0 46 -28 80 -74 80zM402 268h-210c-46 0 -74 -34 -74 -80v-52
c0 -46 28 -80 74 -80h48c42 0 75 12 108 32l54 33v147z" />
    <glyph glyph-name="b" unicode="b" horiz-adv-x="566" 
d="M308 544h54c86 0 140 -54 140 -140v-268c0 -86 -54 -140 -140 -140h-54c-41 0 -75 14 -108 38l-54 40v-74h-68v747h68v-281l54 40c33 24 67 38 108 38zM434 136v268c0 46 -28 80 -74 80h-52c-42 0 -75 -12 -108 -31l-54 -32v-302l54 -32c33 -19 66 -31 108 -31h52
c46 0 74 34 74 80z" />
    <glyph glyph-name="c" unicode="c" horiz-adv-x="530" 
d="M338 -4h-134c-86 0 -140 54 -140 140v268c0 86 54 140 140 140h134c86 0 140 -54 140 -140v-32h-68v32c0 46 -28 80 -74 80h-130c-46 0 -74 -34 -74 -80v-268c0 -46 28 -80 74 -80h130c46 0 74 34 74 80v32h68v-32c0 -86 -54 -140 -140 -140z" />
    <glyph glyph-name="cacute" unicode="&#x107;" horiz-adv-x="530" 
d="M269 612h-48l90 144h87zM338 -4h-134c-86 0 -140 54 -140 140v268c0 86 54 140 140 140h134c86 0 140 -54 140 -140v-32h-68v32c0 46 -28 80 -74 80h-130c-46 0 -74 -34 -74 -80v-268c0 -46 28 -80 74 -80h130c46 0 74 34 74 80v32h68v-32c0 -86 -54 -140 -140 -140z" />
    <glyph glyph-name="ccaron" unicode="&#x10d;" horiz-adv-x="530" 
d="M231 612h72l114 120h-49l-101 -76l-101 76h-49zM338 -4h-134c-86 0 -140 54 -140 140v268c0 86 54 140 140 140h134c86 0 140 -54 140 -140v-32h-68v32c0 46 -28 80 -74 80h-130c-46 0 -74 -34 -74 -80v-268c0 -46 28 -80 74 -80h130c46 0 74 34 74 80v32h68v-32
c0 -86 -54 -140 -140 -140z" />
    <glyph glyph-name="ccedilla" unicode="&#xe7;" horiz-adv-x="530" 
d="M410 372v32c0 46 -28 80 -74 80h-130c-46 0 -74 -34 -74 -80v-268c0 -46 28 -80 74 -80h130c46 0 74 34 74 80v32h68v-32c0 -86 -54 -140 -140 -140h-41l-23 -46h36c50 0 84 -24 84 -74v-10c0 -50 -34 -74 -84 -74h-93l-50 48h151c20 0 22 6 22 26v10c0 20 -2 26 -22 26
h-123l48 94h-39c-86 0 -140 54 -140 140v268c0 86 54 140 140 140h134c86 0 140 -54 140 -140v-32h-68z" />
    <glyph glyph-name="cdotaccent" unicode="&#x10b;" horiz-adv-x="530" 
d="M307 620h-80v94h80v-94zM338 -4h-134c-86 0 -140 54 -140 140v268c0 86 54 140 140 140h134c86 0 140 -54 140 -140v-32h-68v32c0 46 -28 80 -74 80h-130c-46 0 -74 -34 -74 -80v-268c0 -46 28 -80 74 -80h130c46 0 74 34 74 80v32h68v-32c0 -86 -54 -140 -140 -140z" />
    <glyph glyph-name="d" unicode="d" horiz-adv-x="566" 
d="M488 0h-68v74l-54 -40c-33 -24 -67 -38 -108 -38h-54c-86 0 -140 54 -140 140v268c0 86 54 140 140 140h54c41 0 75 -14 108 -38l54 -40v281h68v-747zM420 421l-54 32c-33 19 -66 31 -108 31h-52c-46 0 -74 -34 -74 -80v-268c0 -46 28 -80 74 -80h52c42 0 75 12 108 31
l54 32v302z" />
    <glyph glyph-name="eth" unicode="&#xf0;" horiz-adv-x="551" 
d="M311 657l36 -9c84 -22 140 -44 140 -130v-382c0 -86 -54 -140 -140 -140h-143c-86 0 -140 54 -140 140v218c0 86 54 140 140 140h53c41 0 75 -14 108 -38l54 -40v102c0 46 -29 56 -74 70l-81 25l-62 -59h-66l78 74l-92 28v52l138 -37l61 58h66zM419 371l-54 32
c-33 19 -66 31 -108 31h-51c-46 0 -74 -34 -74 -80v-220c0 -46 28 -80 74 -80h139c46 0 74 34 74 80v237z" />
    <glyph glyph-name="dcaron" unicode="&#x10f;" horiz-adv-x="566" 
d="M488 0h-68v74l-54 -40c-33 -24 -67 -38 -108 -38h-54c-86 0 -140 54 -140 140v268c0 86 54 140 140 140h54c41 0 75 -14 108 -38l54 -40v281h68v-747zM647 747v-80c0 -24 -25 -60 -37 -84l-29 -57h-43l60 123h-39v98h88zM420 421l-54 32c-33 19 -66 31 -108 31h-52
c-46 0 -74 -34 -74 -80v-268c0 -46 28 -80 74 -80h52c42 0 75 12 108 31l54 32v302z" />
    <glyph glyph-name="dcroat" unicode="&#x111;" horiz-adv-x="566" 
d="M564 594h-76v-594h-68v74l-54 -40c-33 -24 -67 -38 -108 -38h-54c-86 0 -140 54 -140 140v268c0 86 54 140 140 140h54c41 0 75 -14 108 -38l54 -40v128h-112v52h112v101h68v-101h76v-52zM420 421l-54 32c-33 19 -66 31 -108 31h-52c-46 0 -74 -34 -74 -80v-268
c0 -46 28 -80 74 -80h52c42 0 75 12 108 31l54 32v302z" />
    <glyph glyph-name="e" unicode="e" horiz-adv-x="540" 
d="M132 255v-121c0 -46 28 -80 74 -80h132c46 0 74 34 74 80v35h68v-33c0 -86 -54 -140 -140 -140h-136c-86 0 -140 54 -140 140v268c0 86 54 140 140 140h136c86 0 140 -54 140 -140v-149h-348zM338 486h-132c-46 0 -74 -34 -74 -80v-93h280v93c0 46 -28 80 -74 80z" />
    <glyph glyph-name="eacute" unicode="&#xe9;" horiz-adv-x="540" 
d="M270 612h-48l90 144h87zM132 255v-121c0 -46 28 -80 74 -80h132c46 0 74 34 74 80v35h68v-33c0 -86 -54 -140 -140 -140h-136c-86 0 -140 54 -140 140v268c0 86 54 140 140 140h136c86 0 140 -54 140 -140v-149h-348zM338 486h-132c-46 0 -74 -34 -74 -80v-93h280v93
c0 46 -28 80 -74 80z" />
    <glyph glyph-name="ecaron" unicode="&#x11b;" horiz-adv-x="540" 
d="M232 612l-114 120h49l101 -76l101 76h49l-114 -120h-72zM132 255v-121c0 -46 28 -80 74 -80h132c46 0 74 34 74 80v35h68v-33c0 -86 -54 -140 -140 -140h-136c-86 0 -140 54 -140 140v268c0 86 54 140 140 140h136c86 0 140 -54 140 -140v-149h-348zM338 486h-132
c-46 0 -74 -34 -74 -80v-93h280v93c0 46 -28 80 -74 80z" />
    <glyph glyph-name="ecircumflex" unicode="&#xea;" horiz-adv-x="540" 
d="M167 612h-49l114 120h72l114 -120h-49l-101 76zM132 255v-121c0 -46 28 -80 74 -80h132c46 0 74 34 74 80v35h68v-33c0 -86 -54 -140 -140 -140h-136c-86 0 -140 54 -140 140v268c0 86 54 140 140 140h136c86 0 140 -54 140 -140v-149h-348zM338 486h-132
c-46 0 -74 -34 -74 -80v-93h280v93c0 46 -28 80 -74 80z" />
    <glyph glyph-name="edieresis" unicode="&#xeb;" horiz-adv-x="540" 
d="M222 616h-78v100h78v-100zM392 616h-78v100h78v-100zM132 255v-121c0 -46 28 -80 74 -80h132c46 0 74 34 74 80v35h68v-33c0 -86 -54 -140 -140 -140h-136c-86 0 -140 54 -140 140v268c0 86 54 140 140 140h136c86 0 140 -54 140 -140v-149h-348zM338 486h-132
c-46 0 -74 -34 -74 -80v-93h280v93c0 46 -28 80 -74 80z" />
    <glyph glyph-name="edotaccent" unicode="&#x117;" horiz-adv-x="540" 
d="M308 620h-80v94h80v-94zM132 255v-121c0 -46 28 -80 74 -80h132c46 0 74 34 74 80v35h68v-33c0 -86 -54 -140 -140 -140h-136c-86 0 -140 54 -140 140v268c0 86 54 140 140 140h136c86 0 140 -54 140 -140v-149h-348zM338 486h-132c-46 0 -74 -34 -74 -80v-93h280v93
c0 46 -28 80 -74 80z" />
    <glyph glyph-name="egrave" unicode="&#xe8;" horiz-adv-x="540" 
d="M264 612l-129 144h87l90 -144h-48zM132 255v-121c0 -46 28 -80 74 -80h132c46 0 74 34 74 80v35h68v-33c0 -86 -54 -140 -140 -140h-136c-86 0 -140 54 -140 140v268c0 86 54 140 140 140h136c86 0 140 -54 140 -140v-149h-348zM338 486h-132c-46 0 -74 -34 -74 -80v-93
h280v93c0 46 -28 80 -74 80z" />
    <glyph glyph-name="emacron" unicode="&#x113;" horiz-adv-x="540" 
d="M396 622h-256v60h256v-60zM132 255v-121c0 -46 28 -80 74 -80h132c46 0 74 34 74 80v35h68v-33c0 -86 -54 -140 -140 -140h-136c-86 0 -140 54 -140 140v268c0 86 54 140 140 140h136c86 0 140 -54 140 -140v-149h-348zM338 486h-132c-46 0 -74 -34 -74 -80v-93h280v93
c0 46 -28 80 -74 80z" />
    <glyph glyph-name="eogonek" unicode="&#x119;" horiz-adv-x="540" 
d="M132 255v-121c0 -46 28 -80 74 -80h132c46 0 74 34 74 80v35h68v-33c0 -86 -54 -140 -140 -140h-38l-47 -68c-19 -27 -14 -40 9 -40h83v-56h-100c-49 0 -101 37 -58 98l47 66h-32c-86 0 -140 54 -140 140v268c0 86 54 140 140 140h136c86 0 140 -54 140 -140v-149h-348z
M338 486h-132c-46 0 -74 -34 -74 -80v-93h280v93c0 46 -28 80 -74 80z" />
    <glyph glyph-name="f" unicode="f" horiz-adv-x="377" 
d="M355 689h-89c-46 0 -74 -34 -74 -80v-69h163v-57h-162v-483h-68v483h-95v57h96v67c0 86 54 140 140 140h89v-58z" />
    <glyph glyph-name="g" unicode="g" horiz-adv-x="566" 
d="M488 540v-594c0 -86 -54 -140 -140 -140h-130c-86 0 -140 54 -140 140v6h68v-9c0 -46 28 -80 74 -80h126c46 0 74 34 74 80v163l-54 -40c-33 -24 -67 -38 -108 -38h-54c-86 0 -140 54 -140 140v236c0 86 54 140 140 140h54c41 0 75 -14 108 -38l54 -40v74h68zM420 421
l-54 32c-33 19 -66 31 -108 31h-52c-46 0 -74 -34 -74 -80v-236c0 -46 28 -80 74 -80h52c42 0 75 12 108 31l54 32v270z" />
    <glyph glyph-name="gbreve" unicode="&#x11f;" horiz-adv-x="566" 
d="M378 727v-51c0 -35 -29 -64 -64 -64h-70c-35 0 -64 29 -64 64v51h48v-47c0 -12 8 -22 20 -22h64c12 0 18 10 18 22v47h48zM488 540v-594c0 -86 -54 -140 -140 -140h-130c-86 0 -140 54 -140 140v6h68v-9c0 -46 28 -80 74 -80h126c46 0 74 34 74 80v163l-54 -40
c-33 -24 -67 -38 -108 -38h-54c-86 0 -140 54 -140 140v236c0 86 54 140 140 140h54c41 0 75 -14 108 -38l54 -40v74h68zM420 421l-54 32c-33 19 -66 31 -108 31h-52c-46 0 -74 -34 -74 -80v-236c0 -46 28 -80 74 -80h52c42 0 75 12 108 31l54 32v270z" />
    <glyph glyph-name="gcommaaccent" unicode="&#x123;" horiz-adv-x="566" 
d="M239 616v80c0 24 25 60 37 84l29 57h43l-60 -123h39v-98h-88zM488 540v-594c0 -86 -54 -140 -140 -140h-130c-86 0 -140 54 -140 140v6h68v-9c0 -46 28 -80 74 -80h126c46 0 74 34 74 80v163l-54 -40c-33 -24 -67 -38 -108 -38h-54c-86 0 -140 54 -140 140v236
c0 86 54 140 140 140h54c41 0 75 -14 108 -38l54 -40v74h68zM420 421l-54 32c-33 19 -66 31 -108 31h-52c-46 0 -74 -34 -74 -80v-236c0 -46 28 -80 74 -80h52c42 0 75 12 108 31l54 32v270z" />
    <glyph glyph-name="gdotaccent" unicode="&#x121;" horiz-adv-x="566" 
d="M319 620h-80v94h80v-94zM488 540v-594c0 -86 -54 -140 -140 -140h-130c-86 0 -140 54 -140 140v6h68v-9c0 -46 28 -80 74 -80h126c46 0 74 34 74 80v163l-54 -40c-33 -24 -67 -38 -108 -38h-54c-86 0 -140 54 -140 140v236c0 86 54 140 140 140h54c41 0 75 -14 108 -38
l54 -40v74h68zM420 421l-54 32c-33 19 -66 31 -108 31h-52c-46 0 -74 -34 -74 -80v-236c0 -46 28 -80 74 -80h52c42 0 75 12 108 31l54 32v270z" />
    <glyph glyph-name="h" unicode="h" horiz-adv-x="562" 
d="M422 0v404c0 46 -28 80 -74 80h-40c-42 0 -75 -12 -108 -31l-54 -32v-421h-68v747h68v-281l54 40c33 24 67 38 108 38h42c86 0 140 -54 140 -140v-404h-68z" />
    <glyph glyph-name="hbar" unicode="&#x127;" horiz-adv-x="562" 
d="M308 544h42c86 0 140 -54 140 -140v-404h-68v404c0 46 -28 80 -74 80h-40c-42 0 -75 -12 -108 -31l-54 -32v-421h-68v594h-62v52h62v101h68v-101h102v-52h-102v-128l54 40c33 24 67 38 108 38z" />
    <glyph glyph-name="i" unicode="i" horiz-adv-x="236" 
d="M157 659h-78v88h78v-88zM152 540v-540h-68v540h68z" />
    <glyph glyph-name="iacute" unicode="&#xed;" horiz-adv-x="236" 
d="M120 612h-48l90 144h87zM152 540v-540h-68v540h68z" />
    <glyph glyph-name="icircumflex" unicode="&#xee;" horiz-adv-x="236" 
d="M17 612l101 76l101 -76h49l-114 120h-72l-114 -120h49zM151 540v-540h-66v540h66z" />
    <glyph glyph-name="idieresis" unicode="&#xef;" horiz-adv-x="236" 
d="M72 616h-78v100h78v-100zM242 616h-78v100h78v-100zM153 540v-540h-66v540h66z" />
    <glyph glyph-name="igrave" unicode="&#xec;" horiz-adv-x="236" 
d="M115 612h48l-90 144h-87zM152 540v-540h-68v540h68z" />
    <glyph glyph-name="ij" unicode="&#x133;" horiz-adv-x="488" 
d="M157 659h-78v88h78v-88zM409 659h-78v88h78v-88zM152 540v-540h-68v540h68zM404 540v-596c0 -86 -54 -140 -140 -140h-46v60h44c46 0 74 34 74 80v596h68z" />
    <glyph glyph-name="imacron" unicode="&#x12b;" horiz-adv-x="236" 
d="M246 682v-60h-256v60h256zM152 540v-540h-68v540h68z" />
    <glyph glyph-name="iogonek" unicode="&#x12f;" horiz-adv-x="236" 
d="M157 659h-78v88h78v-88zM194 -112v-56h-100c-49 0 -101 37 -58 98l50 70h-2v540h68v-540l-50 -72c-19 -27 -14 -40 9 -40h83z" />
    <glyph glyph-name="j" unicode="j" horiz-adv-x="236" 
d="M157 659h-78v88h78v-88zM152 540v-596c0 -86 -54 -140 -140 -140h-46v60h44c46 0 74 34 74 80v596h68z" />
    <glyph glyph-name="k" unicode="k" horiz-adv-x="519" 
d="M419 0l-158 287l-115 -133v-154h-68v720h68v-480l250 300h83l-176 -204l192 -336h-76z" />
    <glyph glyph-name="kcommaaccent" unicode="&#x137;" horiz-adv-x="519" 
d="M495 0h-76l-158 287l-115 -133v-154h-68v720h68v-480l250 300h83l-176 -204zM221 -70h88v-80c0 -24 -25 -60 -37 -84l-29 -57h-43l60 123h-39v98z" />
    <glyph glyph-name="l" unicode="l" horiz-adv-x="234" 
d="M84 747h66v-747h-66v747z" />
    <glyph glyph-name="lacute" unicode="&#x13a;" horiz-adv-x="234" 
d="M115 813h-48l90 144h87zM84 747h66v-747h-66v747z" />
    <glyph glyph-name="lcaron" unicode="&#x13e;" horiz-adv-x="234" 
d="M84 747h66v-747h-66v747zM312 747v-80c0 -24 -25 -60 -37 -84l-29 -57h-43l60 123h-39v98h88z" />
    <glyph glyph-name="lcommaaccent" unicode="&#x13c;" horiz-adv-x="234" 
d="M84 747h66v-747h-66v747zM161 -70v-80c0 -24 -25 -60 -37 -84l-29 -57h-43l60 123h-39v98h88z" />
    <glyph glyph-name="ldot" unicode="&#x140;" horiz-adv-x="342" 
d="M84 747h66v-747h-66v747zM327 350h-88v98h88v-98z" />
    <glyph glyph-name="lslash" unicode="&#x142;" horiz-adv-x="292" 
d="M280 421l-101 -41v-380h-66v352l-101 -41v69l101 41v326h66v-298l101 41v-69z" />
    <glyph glyph-name="m" unicode="m" horiz-adv-x="854" 
d="M632 544h22c86 0 140 -54 140 -140v-404h-68v404c0 46 -28 80 -74 80h-20c-42 0 -75 -12 -108 -31l-55 -32l1 -17v-404h-68v404c0 46 -28 80 -74 80h-20c-42 0 -75 -12 -108 -31l-54 -32v-421h-68v540h68v-74l54 40c33 24 67 38 108 38h22c66 0 113 -31 131 -84l63 46
c32 23 67 38 108 38z" />
    <glyph glyph-name="n" unicode="n" horiz-adv-x="562" 
d="M422 0v404c0 46 -28 80 -74 80h-40c-42 0 -75 -12 -108 -31l-54 -32v-421h-68v540h68v-74l54 40c33 24 67 38 108 38h42c86 0 140 -54 140 -140v-404h-68z" />
    <glyph glyph-name="nacute" unicode="&#x144;" horiz-adv-x="562" 
d="M282 612h-48l90 144h87zM422 0v404c0 46 -28 80 -74 80h-40c-42 0 -75 -12 -108 -31l-54 -32v-421h-68v540h68v-74l54 40c33 24 67 38 108 38h42c86 0 140 -54 140 -140v-404h-68z" />
    <glyph glyph-name="ncaron" unicode="&#x148;" horiz-adv-x="562" 
d="M244 612h72l114 120h-49l-101 -76l-101 76h-49zM422 0v404c0 46 -28 80 -74 80h-40c-42 0 -75 -12 -108 -31l-54 -32v-421h-68v540h68v-74l54 40c33 24 67 38 108 38h42c86 0 140 -54 140 -140v-404h-68z" />
    <glyph glyph-name="ncommaaccent" unicode="&#x146;" horiz-adv-x="562" 
d="M422 0v404c0 46 -28 80 -74 80h-40c-42 0 -75 -12 -108 -31l-54 -32v-421h-68v540h68v-74l54 40c33 24 67 38 108 38h42c86 0 140 -54 140 -140v-404h-68zM328 -70v-80c0 -24 -25 -60 -37 -84l-29 -57h-43l60 123h-39v98h88z" />
    <glyph glyph-name="eng" unicode="&#x14b;" horiz-adv-x="562" 
d="M308 544h42c86 0 140 -54 140 -140v-458c0 -86 -54 -140 -140 -140h-55v60h53c45 0 74 35 74 80v458c0 46 -28 80 -74 80h-40c-42 0 -75 -12 -108 -31l-54 -32v-421h-68v540h68v-74l54 40c33 24 67 38 108 38z" />
    <glyph glyph-name="ntilde" unicode="&#xf1;" horiz-adv-x="562" 
d="M194 612l18 61l138 -60c28 -12 52 -1 58 26l22 96h-56l-19 -59l-136 58c-30 13 -53 1 -59 -27l-20 -95h54zM422 0v404c0 46 -28 80 -74 80h-40c-42 0 -75 -12 -108 -31l-54 -32v-421h-68v540h68v-74l54 40c33 24 67 38 108 38h42c86 0 140 -54 140 -140v-404h-68z" />
    <glyph glyph-name="o" unicode="o" horiz-adv-x="549" 
d="M204 544h141c86 0 140 -54 140 -140v-268c0 -86 -54 -140 -140 -140h-141c-86 0 -140 54 -140 140v268c0 86 54 140 140 140zM417 134v272c0 46 -28 80 -74 80h-137c-46 0 -74 -34 -74 -80v-272c0 -46 28 -80 74 -80h137c46 0 74 34 74 80z" />
    <glyph glyph-name="oacute" unicode="&#xf3;" horiz-adv-x="549" 
d="M274 612h-48l90 144h87zM204 544h141c86 0 140 -54 140 -140v-268c0 -86 -54 -140 -140 -140h-141c-86 0 -140 54 -140 140v268c0 86 54 140 140 140zM417 134v272c0 46 -28 80 -74 80h-137c-46 0 -74 -34 -74 -80v-272c0 -46 28 -80 74 -80h137c46 0 74 34 74 80z" />
    <glyph glyph-name="ocircumflex" unicode="&#xf4;" horiz-adv-x="549" 
d="M171 612l101 76l101 -76h49l-114 120h-72l-114 -120h49zM204 544h141c86 0 140 -54 140 -140v-268c0 -86 -54 -140 -140 -140h-141c-86 0 -140 54 -140 140v268c0 86 54 140 140 140zM417 134v272c0 46 -28 80 -74 80h-137c-46 0 -74 -34 -74 -80v-272
c0 -46 28 -80 74 -80h137c46 0 74 34 74 80z" />
    <glyph glyph-name="odieresis" unicode="&#xf6;" horiz-adv-x="549" 
d="M226 616h-78v100h78v-100zM396 616h-78v100h78v-100zM204 544h141c86 0 140 -54 140 -140v-268c0 -86 -54 -140 -140 -140h-141c-86 0 -140 54 -140 140v268c0 86 54 140 140 140zM417 134v272c0 46 -28 80 -74 80h-137c-46 0 -74 -34 -74 -80v-272c0 -46 28 -80 74 -80
h137c46 0 74 34 74 80z" />
    <glyph glyph-name="ograve" unicode="&#xf2;" horiz-adv-x="549" 
d="M268 612h48l-90 144h-87zM204 544h141c86 0 140 -54 140 -140v-268c0 -86 -54 -140 -140 -140h-141c-86 0 -140 54 -140 140v268c0 86 54 140 140 140zM417 134v272c0 46 -28 80 -74 80h-137c-46 0 -74 -34 -74 -80v-272c0 -46 28 -80 74 -80h137c46 0 74 34 74 80z" />
    <glyph glyph-name="ohungarumlaut" unicode="&#x151;" horiz-adv-x="549" 
d="M325 757l-115 -145h-72l115 145h72zM468 757l-115 -145h-72l115 145h72zM204 544h141c86 0 140 -54 140 -140v-268c0 -86 -54 -140 -140 -140h-141c-86 0 -140 54 -140 140v268c0 86 54 140 140 140zM417 134v272c0 46 -28 80 -74 80h-137c-46 0 -74 -34 -74 -80v-272
c0 -46 28 -80 74 -80h137c46 0 74 34 74 80z" />
    <glyph glyph-name="omacron" unicode="&#x14d;" horiz-adv-x="549" 
d="M400 682v-60h-256v60h256zM204 544h141c86 0 140 -54 140 -140v-268c0 -86 -54 -140 -140 -140h-141c-86 0 -140 54 -140 140v268c0 86 54 140 140 140zM417 134v272c0 46 -28 80 -74 80h-137c-46 0 -74 -34 -74 -80v-272c0 -46 28 -80 74 -80h137c46 0 74 34 74 80z" />
    <glyph glyph-name="oslash" unicode="&#xf8;" horiz-adv-x="551" 
d="M204 544h143c86 0 140 -54 140 -140v-268c0 -86 -54 -140 -140 -140h-143c-86 0 -140 54 -140 140v268c0 86 54 140 140 140zM130 404v-268c0 -20 5 -37 15 -51l206 399h-4h-143c-46 0 -74 -34 -74 -80zM421 136v268c0 20 -5 38 -15 51l-206 -399h4h143c46 0 74 34 74 80
z" />
    <glyph glyph-name="otilde" unicode="&#xf5;" horiz-adv-x="549" 
d="M186 612l18 61l138 -60c28 -12 52 -1 58 26l22 96h-56l-19 -59l-136 58c-30 13 -53 1 -59 -27l-20 -95h54zM204 544h141c86 0 140 -54 140 -140v-268c0 -86 -54 -140 -140 -140h-141c-86 0 -140 54 -140 140v268c0 86 54 140 140 140zM417 134v272c0 46 -28 80 -74 80
h-137c-46 0 -74 -34 -74 -80v-272c0 -46 28 -80 74 -80h137c46 0 74 34 74 80z" />
    <glyph glyph-name="oe" unicode="&#x153;" horiz-adv-x="893" 
d="M485 255v-119c0 -46 28 -80 74 -80h132c46 0 74 34 74 80v33h68v-33c0 -86 -54 -140 -140 -140h-136c-45 0 -82 15 -106 42c-24 -27 -61 -42 -106 -42h-141c-86 0 -140 54 -140 140v268c0 86 54 140 140 140h141c45 0 82 -15 106 -42c24 27 61 42 106 42h136
c86 0 140 -54 140 -140v-149h-348zM206 56h137c46 0 74 34 74 80v268c0 46 -28 80 -74 80h-137c-46 0 -74 -34 -74 -80v-268c0 -46 28 -80 74 -80zM691 484h-132c-46 0 -74 -34 -74 -80v-91h280v91c0 46 -28 80 -74 80z" />
    <glyph glyph-name="p" unicode="p" horiz-adv-x="566" 
d="M308 544h54c86 0 140 -54 140 -140v-268c0 -86 -54 -140 -140 -140h-54c-41 0 -75 14 -108 38l-54 40v-264h-68v730h68v-74l54 40c33 24 67 38 108 38zM434 136v268c0 46 -28 80 -74 80h-52c-42 0 -75 -12 -108 -31l-54 -32v-302l54 -32c33 -19 66 -31 108 -31h52
c46 0 74 34 74 80z" />
    <glyph glyph-name="thorn" unicode="&#xfe;" horiz-adv-x="566" 
d="M308 544h54c86 0 140 -54 140 -140v-268c0 -86 -54 -140 -140 -140h-54c-41 0 -75 14 -108 38l-54 40v-264h-68v937h68v-281l54 40c33 24 67 38 108 38zM434 136v268c0 46 -28 80 -74 80h-52c-42 0 -75 -12 -108 -31l-54 -32v-302l54 -32c33 -19 66 -31 108 -31h52
c46 0 74 34 74 80z" />
    <glyph glyph-name="q" unicode="q" horiz-adv-x="566" 
d="M204 544h54c41 0 75 -14 108 -38l54 -40v74h68v-730h-68v264l-54 -40c-33 -24 -67 -38 -108 -38h-54c-86 0 -140 54 -140 140v268c0 86 54 140 140 140zM258 484h-52c-46 0 -74 -34 -74 -80v-268c0 -46 28 -80 74 -80h52c42 0 75 12 108 31l54 32v302l-54 32
c-33 19 -66 31 -108 31z" />
    <glyph glyph-name="r" unicode="r" horiz-adv-x="384" 
d="M356 481h-48c-42 0 -75 -12 -108 -31l-54 -32v-418h-68v540h68v-74l54 40c33 24 67 38 108 38h48v-63z" />
    <glyph glyph-name="racute" unicode="&#x155;" horiz-adv-x="384" 
d="M202 612h-48l90 144h87zM356 481h-48c-42 0 -75 -12 -108 -31l-54 -32v-418h-68v540h68v-74l54 40c33 24 67 38 108 38h48v-63z" />
    <glyph glyph-name="rcaron" unicode="&#x159;" horiz-adv-x="384" 
d="M164 612h72l114 120h-49l-101 -76l-101 76h-49zM356 481h-48c-42 0 -75 -12 -108 -31l-54 -32v-418h-68v540h68v-74l54 40c33 24 67 38 108 38h48v-63z" />
    <glyph glyph-name="rcommaaccent" unicode="&#x157;" horiz-adv-x="384" 
d="M356 481h-48c-42 0 -75 -12 -108 -31l-54 -32v-418h-68v540h68v-74l54 40c33 24 67 38 108 38h48v-63zM156 -70v-80c0 -24 -25 -60 -37 -84l-29 -57h-43l60 123h-39v98h88z" />
    <glyph glyph-name="s" unicode="s" horiz-adv-x="518" 
d="M385 386v26c0 46 -20 75 -66 75h-124c-46 0 -66 -29 -66 -75v-33c0 -39 20 -49 62 -56l157 -26c78 -13 116 -45 116 -116v-55c0 -82 -48 -130 -130 -130h-150c-82 0 -130 48 -130 130v37h66v-35c0 -46 20 -75 66 -75h146c46 0 64 29 64 75v52c0 39 -20 49 -62 56l-157 26
c-78 13 -116 45 -116 116v36c0 82 48 130 130 130h130c82 0 130 -48 130 -130v-28h-66z" />
    <glyph glyph-name="sacute" unicode="&#x15b;" horiz-adv-x="518" 
d="M254 612h-48l90 144h87zM385 386v26c0 46 -20 75 -66 75h-124c-46 0 -66 -29 -66 -75v-33c0 -39 20 -49 62 -56l157 -26c78 -13 116 -45 116 -116v-55c0 -82 -48 -130 -130 -130h-150c-82 0 -130 48 -130 130v37h66v-35c0 -46 20 -75 66 -75h146c46 0 64 29 64 75v52
c0 39 -20 49 -62 56l-157 26c-78 13 -116 45 -116 116v36c0 82 48 130 130 130h130c82 0 130 -48 130 -130v-28h-66z" />
    <glyph glyph-name="scaron" unicode="&#x161;" horiz-adv-x="518" 
d="M216 612h72l114 120h-49l-101 -76l-101 76h-49zM385 386v26c0 46 -20 75 -66 75h-124c-46 0 -66 -29 -66 -75v-33c0 -39 20 -49 62 -56l157 -26c78 -13 116 -45 116 -116v-55c0 -82 -48 -130 -130 -130h-150c-82 0 -130 48 -130 130v37h66v-35c0 -46 20 -75 66 -75h146
c46 0 64 29 64 75v52c0 39 -20 49 -62 56l-157 26c-78 13 -116 45 -116 116v36c0 82 48 130 130 130h130c82 0 130 -48 130 -130v-28h-66z" />
    <glyph glyph-name="scedilla" unicode="&#x15f;" horiz-adv-x="518" 
d="M191 323l157 -26c78 -13 116 -45 116 -116v-55c0 -82 -48 -130 -130 -130h-39l-23 -46h36c50 0 84 -24 84 -74v-10c0 -50 -34 -74 -84 -74h-93l-50 48h151c20 0 22 6 22 26v10c0 20 -2 26 -22 26h-123l48 94h-57c-82 0 -130 48 -130 130v37h66v-35c0 -46 20 -75 66 -75
h146c46 0 64 29 64 75v52c0 39 -20 49 -62 56l-157 26c-78 13 -116 45 -116 116v36c0 82 48 130 130 130h130c82 0 130 -48 130 -130v-28h-66v26c0 46 -20 75 -66 75h-124c-46 0 -66 -29 -66 -75v-33c0 -39 20 -49 62 -56z" />
    <glyph glyph-name="germandbls" unicode="&#xdf;" horiz-adv-x="560" 
d="M494 584v-106c0 -51 -32 -90 -66 -108c38 -12 74 -53 74 -108v-122c0 -86 -54 -140 -140 -140h-138v59h136c46 0 74 34 74 80v128c0 46 -21 74 -86 74h-102v59h102c62 0 78 20 78 74v111c0 46 -28 80 -74 80h-136c-46 0 -74 -34 -74 -80v-585h-68v584
c0 86 54 140 140 140h140c86 0 140 -54 140 -140z" />
    <glyph glyph-name="t" unicode="t" horiz-adv-x="409" 
d="M191 483v-345c0 -46 28 -80 74 -80h104v-58h-106c-86 0 -140 54 -140 140v343h-95v57h96v180h66v-180h179v-57h-178z" />
    <glyph glyph-name="tbar" unicode="&#x167;" horiz-adv-x="409" 
d="M191 483v-126h105v-60h-105v-159c0 -46 28 -80 74 -80h104v-58h-106c-86 0 -140 54 -140 140v157h-83v60h83v126h-95v57h96v180h66v-180h179v-57h-178z" />
    <glyph glyph-name="tcaron" unicode="&#x165;" horiz-adv-x="409" 
d="M377 835v-80c0 -24 -25 -60 -37 -84l-29 -57h-43l60 123h-39v98h88zM191 483v-345c0 -46 28 -80 74 -80h104v-58h-106c-86 0 -140 54 -140 140v343h-95v57h96v180h66v-180h179v-57h-178z" />
    <glyph glyph-name="tcedilla" unicode="&#x163;" horiz-adv-x="409" 
d="M292 -50h36c50 0 84 -24 84 -74v-10c0 -50 -34 -74 -84 -74h-93l-50 48h151c20 0 22 6 22 26v10c0 20 -2 26 -22 26h-123l50 98c-86 0 -140 54 -140 140v343h-95v57h96v180h66v-180h179v-57h-178v-345c0 -46 28 -80 74 -80h104v-58h-52z" />
    <glyph glyph-name="u" unicode="u" horiz-adv-x="562" 
d="M140 540v-404c0 -46 28 -80 74 -80h40c42 0 75 12 108 31l54 32v421h68v-540h-68v74l-54 -40c-33 -24 -67 -38 -108 -38h-42c-86 0 -140 54 -140 140v404h68z" />
    <glyph glyph-name="uacute" unicode="&#xfa;" horiz-adv-x="562" 
d="M276 612h-48l90 144h87zM140 540v-404c0 -46 28 -80 74 -80h40c42 0 75 12 108 31l54 32v421h68v-540h-68v74l-54 -40c-33 -24 -67 -38 -108 -38h-42c-86 0 -140 54 -140 140v404h68z" />
    <glyph glyph-name="ucircumflex" unicode="&#xfb;" horiz-adv-x="562" 
d="M173 612l101 76l101 -76h49l-114 120h-72l-114 -120h49zM140 540v-404c0 -46 28 -80 74 -80h40c42 0 75 12 108 31l54 32v421h68v-540h-68v74l-54 -40c-33 -24 -67 -38 -108 -38h-42c-86 0 -140 54 -140 140v404h68z" />
    <glyph glyph-name="udieresis" unicode="&#xfc;" horiz-adv-x="562" 
d="M228 616h-78v100h78v-100zM398 616h-78v100h78v-100zM140 540v-404c0 -46 28 -80 74 -80h40c42 0 75 12 108 31l54 32v421h68v-540h-68v74l-54 -40c-33 -24 -67 -38 -108 -38h-42c-86 0 -140 54 -140 140v404h68z" />
    <glyph glyph-name="ugrave" unicode="&#xf9;" horiz-adv-x="562" 
d="M270 612h48l-90 144h-87zM140 540v-404c0 -46 28 -80 74 -80h40c42 0 75 12 108 31l54 32v421h68v-540h-68v74l-54 -40c-33 -24 -67 -38 -108 -38h-42c-86 0 -140 54 -140 140v404h68z" />
    <glyph glyph-name="uhungarumlaut" unicode="&#x171;" horiz-adv-x="562" 
d="M327 757l-115 -145h-72l115 145h72zM470 757l-115 -145h-72l115 145h72zM140 540v-404c0 -46 28 -80 74 -80h40c42 0 75 12 108 31l54 32v421h68v-540h-68v74l-54 -40c-33 -24 -67 -38 -108 -38h-42c-86 0 -140 54 -140 140v404h68z" />
    <glyph glyph-name="umacron" unicode="&#x16b;" horiz-adv-x="562" 
d="M402 682v-60h-256v60h256zM140 540v-404c0 -46 28 -80 74 -80h40c42 0 75 12 108 31l54 32v421h68v-540h-68v74l-54 -40c-33 -24 -67 -38 -108 -38h-42c-86 0 -140 54 -140 140v404h68z" />
    <glyph glyph-name="uogonek" unicode="&#x173;" horiz-adv-x="562" 
d="M526 -112v-56h-100c-49 0 -101 37 -58 98l50 70h-2v74l-54 -40c-33 -24 -67 -38 -108 -38h-42c-86 0 -140 54 -140 140v404h68v-404c0 -46 28 -80 74 -80h40c42 0 75 12 108 31l54 32v421h68v-540l-50 -72c-19 -27 -14 -40 9 -40h83z" />
    <glyph glyph-name="uring" unicode="&#x16f;" horiz-adv-x="562" 
d="M322 612h-96c-17 0 -34 17 -34 34v86c0 17 17 34 34 34h96c17 0 34 -17 34 -34v-86c0 -17 -17 -34 -34 -34zM228 718v-58c0 -7 5 -12 12 -12h68c7 0 12 5 12 12v58c0 7 -5 12 -12 12h-68c-7 0 -12 -5 -12 -12zM140 540v-404c0 -46 28 -80 74 -80h40c42 0 75 12 108 31
l54 32v421h68v-540h-68v74l-54 -40c-33 -24 -67 -38 -108 -38h-42c-86 0 -140 54 -140 140v404h68z" />
    <glyph glyph-name="v" unicode="v" horiz-adv-x="486" 
d="M466 540l-180 -540h-86l-180 540h74l151 -487l151 487h70z" />
    <glyph glyph-name="w" unicode="w" horiz-adv-x="742" 
d="M557 0h-74l-111 440l-111 -440h-76l-165 540h69l134 -477l117 477h64l117 -477l136 477h65z" />
    <glyph glyph-name="wacute" unicode="&#x1e83;" horiz-adv-x="742" 
d="M370 612h-48l90 144h87zM557 0h-74l-111 440l-111 -440h-76l-165 540h69l134 -477l117 477h64l117 -477l136 477h65z" />
    <glyph glyph-name="wcircumflex" unicode="&#x175;" horiz-adv-x="742" 
d="M267 612l101 76l101 -76h49l-114 120h-72l-114 -120h49zM557 0h-74l-111 440l-111 -440h-76l-165 540h69l134 -477l117 477h64l117 -477l136 477h65z" />
    <glyph glyph-name="wdieresis" unicode="&#x1e85;" horiz-adv-x="742" 
d="M322 616h-78v100h78v-100zM492 616h-78v100h78v-100zM557 0h-74l-111 440l-111 -440h-76l-165 540h69l134 -477l117 477h64l117 -477l136 477h65z" />
    <glyph glyph-name="wgrave" unicode="&#x1e81;" horiz-adv-x="742" 
d="M364 612h48l-90 144h-87zM557 0h-74l-111 440l-111 -440h-76l-165 540h69l134 -477l117 477h64l117 -477l136 477h65z" />
    <glyph glyph-name="x" unicode="x" horiz-adv-x="499" 
d="M403 0l-158 223l-153 -223h-73l190 275l-188 265h76l153 -217l149 217h74l-185 -270l191 -270h-76z" />
    <glyph glyph-name="y" unicode="y" horiz-adv-x="486" 
d="M466 540l-249 -730h-64l64 190l-197 540h72l152 -457l154 457h68z" />
    <glyph glyph-name="yacute" unicode="&#xfd;" horiz-adv-x="486" 
d="M242 612h-48l90 144h87zM466 540l-249 -730h-64l64 190l-197 540h72l152 -457l154 457h68z" />
    <glyph glyph-name="ycircumflex" unicode="&#x177;" horiz-adv-x="486" 
d="M139 612h-49l114 120h72l114 -120h-49l-101 76zM466 540l-249 -730h-64l64 190l-197 540h72l152 -457l154 457h68z" />
    <glyph glyph-name="ydieresis" unicode="&#xff;" horiz-adv-x="486" 
d="M194 616h-78v100h78v-100zM364 616h-78v100h78v-100zM466 540l-249 -730h-64l64 190l-197 540h72l152 -457l154 457h68z" />
    <glyph glyph-name="ygrave" unicode="&#x1ef3;" horiz-adv-x="486" 
d="M236 612l-129 144h87l90 -144h-48zM466 540l-249 -730h-64l64 190l-197 540h72l152 -457l154 457h68z" />
    <glyph glyph-name="z" unicode="z" horiz-adv-x="458" 
d="M40 42l294 440h-280v58h364v-42l-295 -440h291v-58h-374v42z" />
    <glyph glyph-name="zacute" unicode="&#x17a;" horiz-adv-x="458" 
d="M234 612h-48l90 144h87zM40 42l294 440h-280v58h364v-42l-295 -440h291v-58h-374v42z" />
    <glyph glyph-name="zcaron" unicode="&#x17e;" horiz-adv-x="458" 
d="M196 612h72l114 120h-49l-101 -76l-101 76h-49zM40 42l294 440h-280v58h364v-42l-295 -440h291v-58h-374v42z" />
    <glyph glyph-name="zdotaccent" unicode="&#x17c;" horiz-adv-x="458" 
d="M272 620h-80v94h80v-94zM40 42l294 440h-280v58h364v-42l-295 -440h291v-58h-374v42z" />
    <glyph glyph-name="ordfeminine" unicode="&#xaa;" horiz-adv-x="375" 
d="M151 722h83c55 0 91 -36 91 -91v-262h-52v47l-36 -30c-21 -16 -44 -20 -64 -20h-32c-55 0 -91 36 -91 91v32c0 56 35 90 91 90h17c30 0 68 -3 115 -12v59c0 28 -18 48 -45 48h-70c-28 0 -45 -20 -45 -48v-4h-53v9c0 55 36 91 91 91zM273 537h-126c-28 0 -45 -21 -45 -49
v-26c0 -28 17 -48 45 -48h28c26 0 46 7 67 20l31 21v82zM325 302v-48h-267v48h267z" />
    <glyph glyph-name="ordmasculine" unicode="&#xba;" horiz-adv-x="378" 
d="M141 722h96c55 0 91 -36 91 -91v-174c0 -55 -36 -91 -91 -91h-96c-55 0 -91 36 -91 91v174c0 55 36 91 91 91zM275 462v164c0 28 -18 48 -44 48h-84c-27 0 -44 -20 -44 -48v-164c0 -28 17 -48 44 -48h84c26 0 44 20 44 48zM320 302v-48h-262v48h262z" />
    <glyph glyph-name="zero" unicode="0" 
d="M416 -4h-193c-90 0 -144 54 -144 144v440c0 90 54 144 144 144h193c90 0 144 -54 144 -144v-440c0 -90 -54 -144 -144 -144zM151 582v-444c0 -45 27 -76 72 -76h193c45 0 72 31 72 76v444c0 45 -27 76 -72 76h-193c-45 0 -72 -31 -72 -76z" />
    <glyph glyph-name="one" unicode="1" horiz-adv-x="351" 
d="M171 0v646l-121 -51v67l131 58h62v-720h-72z" />
    <glyph glyph-name="two" unicode="2" horiz-adv-x="600" 
d="M152 515v67c0 45 27 76 72 76h166c45 0 72 -35 72 -80v-104c0 -36 -28 -45 -72 -66l-176 -85c-90 -43 -144 -54 -144 -144v-179h466v66h-394v115c0 36 28 45 72 66l176 85c90 43 144 54 144 144v104c0 90 -54 144 -144 144h-166c-90 0 -144 -54 -144 -144v-65h72z" />
    <glyph glyph-name="three" unicode="3" horiz-adv-x="609" 
d="M132 195v-57c0 -45 27 -76 72 -76h188c45 0 72 31 72 76v126c0 46 -21 74 -86 74h-172v65h172c62 0 78 20 78 74v105c0 45 -27 76 -72 76h-172c-45 0 -72 -31 -72 -76v-57h-72v55c0 90 54 144 144 144h172c90 0 144 -54 144 -144v-102c0 -55 -32 -90 -66 -108
c38 -12 74 -53 74 -108v-122c0 -90 -54 -144 -144 -144h-188c-90 0 -144 54 -144 144v55h72z" />
    <glyph glyph-name="four" unicode="4" horiz-adv-x="619" 
d="M583 180h-105v-180h-72v180h-370v56l360 484h82v-474h105v-66zM122 246h284v381z" />
    <glyph glyph-name="five" unicode="5" horiz-adv-x="595" 
d="M521 654h-373v-265l54 40c33 24 67 38 108 38h81c86 0 140 -54 140 -140v-187c0 -90 -54 -144 -144 -144h-173c-90 0 -144 54 -144 144v59h72v-61c0 -45 27 -76 72 -76h173c45 0 72 31 72 76v187c0 45 -29 76 -74 76h-75c-42 0 -75 -12 -108 -31l-54 -32l-72 23v359h445
v-66z" />
    <glyph glyph-name="six" unicode="6" horiz-adv-x="616" 
d="M458 524v58c0 45 -27 76 -72 76h-163c-45 0 -72 -31 -72 -76v-213l54 40c33 24 67 38 108 38h83c90 0 144 -54 144 -144v-163c0 -90 -54 -144 -144 -144h-173c-90 0 -144 54 -144 144v440c0 90 54 144 144 144h163c90 0 144 -54 144 -144v-56h-72zM151 318v-180
c0 -45 27 -76 72 -76h173c45 0 72 31 72 76v167c0 45 -27 76 -72 76h-83c-42 0 -75 -12 -108 -31z" />
    <glyph glyph-name="seven" unicode="7" horiz-adv-x="550" 
d="M512 672l-326 -672h-74l316 654h-392v66h476v-48z" />
    <glyph glyph-name="eight" unicode="8" horiz-adv-x="630" 
d="M549 580v-104c0 -55 -32 -90 -66 -108c38 -12 74 -53 74 -108v-120c0 -90 -54 -144 -144 -144h-196c-90 0 -144 54 -144 144v120c0 55 36 96 74 108c-34 18 -66 53 -66 108v104c0 90 54 144 144 144h180c90 0 144 -54 144 -144zM405 658h-180c-45 0 -72 -31 -72 -76v-107
c0 -54 16 -74 78 -74h168c62 0 78 20 78 74v107c0 45 -27 76 -72 76zM399 336h-168c-65 0 -86 -28 -86 -74v-124c0 -45 27 -76 72 -76h196c45 0 72 31 72 76v124c0 46 -21 74 -86 74z" />
    <glyph glyph-name="nine" unicode="9" horiz-adv-x="616" 
d="M158 196v-58c0 -45 27 -76 72 -76h163c45 0 72 31 72 76v225l-54 -40c-33 -24 -67 -38 -108 -38h-87c-86 0 -140 54 -140 140v155c0 90 54 144 144 144h173c90 0 144 -54 144 -144v-440c0 -90 -54 -144 -144 -144h-163c-90 0 -144 54 -144 144v56h72zM465 414v168
c0 45 -27 76 -72 76h-173c-45 0 -72 -31 -72 -76v-155c0 -45 29 -76 74 -76h81c42 0 75 12 108 31z" />
    <glyph glyph-name="zero.subs" horiz-adv-x="352" 
d="M233 -92h-114c-48 0 -79 28 -79 71v222c0 43 31 71 79 71h114c48 0 79 -28 79 -71v-222c0 -43 -31 -71 -79 -71zM98 192v-204c0 -15 11 -25 30 -25h96c19 0 30 10 30 25v204c0 15 -11 25 -30 25h-96c-19 0 -30 -10 -30 -25z" />
    <glyph glyph-name="one.subs" horiz-adv-x="208" 
d="M94 -90v300l-69 -24v50l80 34h47v-360h-58z" />
    <glyph glyph-name="two.subs" horiz-adv-x="332" 
d="M97 164v26c0 17 11 27 31 27h82c20 0 31 -11 31 -28v-38c0 -15 -11 -19 -31 -25l-96 -35c-46 -17 -79 -30 -79 -72v-109h266v55h-208v44c0 15 12 19 31 25l96 35c46 17 79 30 79 72v59c0 42 -32 72 -79 72h-101c-47 0 -79 -30 -79 -72v-36h57z" />
    <glyph glyph-name="three.subs" horiz-adv-x="335" 
d="M88 14v-25c0 -18 10 -27 31 -27h90c21 0 31 9 31 27v53c0 18 -11 27 -37 27h-86v51h86c25 0 33 7 33 27v44c0 18 -10 27 -31 27h-81c-22 0 -32 -9 -32 -27v-25h-58v34c0 42 33 72 80 72h101c47 0 79 -30 79 -72v-52c0 -23 -14 -42 -35 -54c23 -9 39 -30 39 -54v-60
c0 -42 -32 -72 -79 -72h-110c-47 0 -79 30 -79 72v34h58z" />
    <glyph glyph-name="four.subs" horiz-adv-x="366" 
d="M339 -11h-57v-79h-57v79h-193l-8 44l203 237h55v-229h57v-52zM94 41h131v146z" />
    <glyph glyph-name="five.subs" horiz-adv-x="336" 
d="M40 270h253v-55h-195v-109l28 20c19 16 38 19 52 19h45c46 0 78 -30 78 -71v-94c0 -42 -32 -72 -79 -72h-107c-47 0 -79 30 -79 72v35h58v-25c0 -17 12 -27 31 -27h87c20 0 31 10 31 27v76c0 16 -12 27 -32 27h-36c-20 0 -36 -5 -53 -13l-24 -11l-58 18v183z" />
    <glyph glyph-name="six.subs" horiz-adv-x="343" 
d="M242 167v21c0 17 -11 27 -31 27h-82c-19 0 -31 -10 -31 -27v-94l28 20c18 16 38 19 52 19h49c46 0 78 -30 78 -71v-84c0 -42 -32 -72 -79 -72h-107c-47 0 -79 30 -79 72v220c0 42 32 72 79 72h102c47 0 79 -30 79 -72v-31h-58zM98 59v-71c0 -17 12 -27 31 -27h87
c20 0 31 10 31 27v67c0 17 -12 27 -32 27h-41c-19 0 -35 -4 -52 -12z" />
    <glyph glyph-name="seven.subs" horiz-adv-x="317" 
d="M293 227l-186 -317h-63l179 305h-202v55h272v-43z" />
    <glyph glyph-name="eight.subs" horiz-adv-x="346" 
d="M305 200v-52c0 -23 -14 -42 -36 -54c24 -9 40 -30 40 -54v-60c0 -42 -32 -72 -79 -72h-114c-47 0 -79 30 -79 72v60c0 24 16 45 40 54c-22 12 -36 31 -36 54v52c0 42 33 72 80 72h105c47 0 79 -30 79 -72zM216 218h-85c-22 0 -32 -9 -32 -27v-44c0 -20 8 -27 34 -27h81
c25 0 33 7 33 27v44c0 18 -10 27 -31 27zM214 69h-81c-27 0 -38 -9 -38 -27v-53c0 -18 10 -27 31 -27h94c21 0 31 9 31 27v53c0 18 -11 27 -37 27z" />
    <glyph glyph-name="nine.subs" horiz-adv-x="343" 
d="M101 11v-21c0 -17 12 -27 31 -27h82c20 0 31 10 31 27v97l-27 -19c-19 -17 -39 -19 -53 -19h-49c-46 0 -78 30 -78 71v80c0 42 32 72 79 72h107c47 0 79 -30 79 -72v-220c0 -42 -32 -72 -79 -72h-102c-47 0 -79 30 -79 72v31h58zM245 123v67c0 17 -11 27 -31 27h-87
c-19 0 -31 -10 -31 -27v-64c0 -16 12 -27 32 -27h41c19 0 36 5 52 13z" />
    <glyph glyph-name="zero.tf" 
d="M416 -4h-193c-90 0 -144 54 -144 144v440c0 90 54 144 144 144h193c90 0 144 -54 144 -144v-440c0 -90 -54 -144 -144 -144zM151 582v-444c0 -45 27 -76 72 -76h193c45 0 72 31 72 76v444c0 45 -27 76 -72 76h-193c-45 0 -72 -31 -72 -76z" />
    <glyph glyph-name="one.tf" 
d="M540 0h-430v66h185v586l-185 -50v68l184 50h73v-654h173v-66z" />
    <glyph glyph-name="two.tf" 
d="M166 515v67c0 45 27 76 72 76h172c45 0 72 -35 72 -80v-104c0 -36 -28 -46 -72 -66l-182 -85c-91 -42 -144 -54 -144 -144v-179h472v66h-400v115c0 36 28 46 72 66l182 85c91 42 144 54 144 144v104c0 90 -54 144 -144 144h-172c-90 0 -144 -54 -144 -144v-65h72z" />
    <glyph glyph-name="three.tf" 
d="M149 195v-57c0 -50 22 -76 72 -76h192c50 0 72 26 72 76v126c0 46 -21 74 -86 74h-176v65h176c62 0 78 20 78 74v105c0 50 -22 76 -72 76h-176c-50 0 -72 -26 -72 -76v-57h-72v55c0 90 54 144 144 144h176c90 0 144 -54 144 -144v-102c0 -55 -32 -90 -66 -108
c38 -12 74 -53 74 -108v-122c0 -90 -54 -144 -144 -144h-192c-90 0 -144 54 -144 144v55h72z" />
    <glyph glyph-name="four.tf" 
d="M591 180h-105v-180h-72v180h-370v56l360 484h82v-474h105v-66zM130 246h284v381z" />
    <glyph glyph-name="five.tf" 
d="M545 654h-377v-265l54 40c33 24 67 38 108 38h85c86 0 140 -54 140 -140v-187c0 -90 -54 -144 -144 -144h-177c-90 0 -144 54 -144 144v59h72v-62c0 -45 27 -75 72 -75h177c45 0 72 31 72 76v187c0 45 -29 76 -74 76h-79c-42 0 -75 -12 -108 -31l-54 -32l-72 23v359h449
v-66z" />
    <glyph glyph-name="six.tf" 
d="M475 524v58c0 45 -27 76 -72 76h-165c-45 0 -72 -31 -72 -76v-211l65 47c32 23 67 29 99 29h87c86 0 140 -54 140 -140v-167c0 -90 -54 -144 -144 -144h-175c-90 0 -144 54 -144 144v440c0 90 54 144 144 144h165c90 0 144 -54 144 -144v-56h-72zM166 316v-179
c0 -45 27 -75 72 -75h175c45 0 72 31 72 76v167c0 45 -29 76 -74 76h-81c-42 0 -75 -12 -108 -32z" />
    <glyph glyph-name="seven.tf" 
d="M563 672l-323 -672h-76l311 654h-414v66h502v-48z" />
    <glyph glyph-name="eight.tf" 
d="M554 580v-102c0 -55 -32 -90 -66 -108c38 -12 74 -53 74 -108v-122c0 -90 -54 -144 -144 -144h-196c-90 0 -144 54 -144 144v122c0 55 36 96 74 108c-34 18 -66 53 -66 108v102c0 90 54 144 144 144h180c90 0 144 -54 144 -144zM410 658h-180c-50 0 -72 -26 -72 -76v-105
c0 -54 16 -74 78 -74h168c62 0 78 20 78 74v105c0 50 -22 76 -72 76zM404 338h-168c-65 0 -86 -28 -86 -74v-126c0 -50 22 -76 72 -76h196c50 0 72 26 72 76v126c0 46 -21 74 -86 74z" />
    <glyph glyph-name="nine.tf" 
d="M164 196v-58c0 -45 27 -76 72 -76h165c45 0 72 31 72 76v225l-54 -40c-33 -24 -67 -38 -108 -38h-89c-86 0 -140 54 -140 140v155c0 90 54 144 144 144h175c90 0 144 -54 144 -144v-440c0 -90 -54 -144 -144 -144h-165c-90 0 -144 54 -144 144v56h72zM473 414v169
c0 45 -27 75 -72 75h-175c-45 0 -72 -31 -72 -76v-155c0 -45 29 -76 74 -76h83c42 0 75 12 108 31z" />
    <glyph glyph-name="fraction" unicode="&#x2044;" horiz-adv-x="140" 
d="M290 720l-382 -720h-58l382 720h58z" />
    <glyph glyph-name="onehalf" unicode="&#xbd;" horiz-adv-x="680" 
d="M94 360v300l-69 -24v50l80 34h47v-360h-58zM498 720l-382 -720h-58l382 720h58zM445 254v26c0 17 11 27 31 27h82c20 0 31 -11 31 -28v-38c0 -15 -11 -19 -31 -25l-96 -35c-46 -17 -79 -30 -79 -72v-109h266v55h-208v44c0 15 12 19 31 25l96 35c46 17 79 30 79 72v59
c0 42 -32 72 -79 72h-101c-47 0 -79 -30 -79 -72v-36h57z" />
    <glyph glyph-name="onequarter" unicode="&#xbc;" horiz-adv-x="654" 
d="M94 360v300l-69 -24v50l80 34h47v-360h-58zM498 720l-382 -720h-58l382 720h58zM627 79h-57v-79h-57v79h-193l-8 44l203 237h55v-229h57v-52zM382 131h131v146z" />
    <glyph glyph-name="threequarters" unicode="&#xbe;" horiz-adv-x="781" 
d="M88 464v-25c0 -18 10 -27 31 -27h90c21 0 31 9 31 27v53c0 18 -11 27 -37 27h-86v51h86c25 0 33 7 33 27v44c0 18 -10 27 -31 27h-81c-22 0 -32 -9 -32 -27v-25h-58v34c0 42 33 72 80 72h101c47 0 79 -30 79 -72v-52c0 -23 -14 -42 -35 -54c23 -9 39 -30 39 -54v-60
c0 -42 -32 -72 -79 -72h-110c-47 0 -79 30 -79 72v34h58zM625 720l-382 -720h-58l382 720h58zM754 79h-57v-79h-57v79h-193l-8 44l203 237h55v-229h57v-52zM509 131h131v146z" />
    <glyph glyph-name="oneeighth" unicode="&#x215b;" horiz-adv-x="694" 
d="M94 360v300l-69 -24v50l80 34h47v-360h-58zM498 720l-382 -720h-58l382 720h58zM653 290v-52c0 -23 -14 -42 -36 -54c24 -9 40 -30 40 -54v-60c0 -42 -32 -72 -79 -72h-114c-47 0 -79 30 -79 72v60c0 24 16 45 40 54c-22 12 -36 31 -36 54v52c0 42 33 72 80 72h105
c47 0 79 -30 79 -72zM564 308h-85c-22 0 -32 -9 -32 -27v-44c0 -20 8 -27 34 -27h81c25 0 33 7 33 27v44c0 18 -10 27 -31 27zM562 159h-81c-27 0 -38 -9 -38 -27v-53c0 -18 10 -27 31 -27h94c21 0 31 9 31 27v53c0 18 -11 27 -37 27z" />
    <glyph glyph-name="threeeighths" unicode="&#x215c;" horiz-adv-x="821" 
d="M88 464v-25c0 -18 10 -27 31 -27h90c21 0 31 9 31 27v53c0 18 -11 27 -37 27h-86v51h86c25 0 33 7 33 27v44c0 18 -10 27 -31 27h-81c-22 0 -32 -9 -32 -27v-25h-58v34c0 42 33 72 80 72h101c47 0 79 -30 79 -72v-52c0 -23 -14 -42 -35 -54c23 -9 39 -30 39 -54v-60
c0 -42 -32 -72 -79 -72h-110c-47 0 -79 30 -79 72v34h58zM625 720l-382 -720h-58l382 720h58zM780 290v-52c0 -23 -14 -42 -36 -54c24 -9 40 -30 40 -54v-60c0 -42 -32 -72 -79 -72h-114c-47 0 -79 30 -79 72v60c0 24 16 45 40 54c-22 12 -36 31 -36 54v52c0 42 33 72 80 72
h105c47 0 79 -30 79 -72zM691 308h-85c-22 0 -32 -9 -32 -27v-44c0 -20 8 -27 34 -27h81c25 0 33 7 33 27v44c0 18 -10 27 -31 27zM689 159h-81c-27 0 -38 -9 -38 -27v-53c0 -18 10 -27 31 -27h94c21 0 31 9 31 27v53c0 18 -11 27 -37 27z" />
    <glyph glyph-name="fiveeighths" unicode="&#x215d;" horiz-adv-x="822" 
d="M40 720h253v-55h-195v-109l28 20c19 16 38 19 52 19h45c46 0 78 -30 78 -71v-94c0 -42 -32 -72 -79 -72h-107c-47 0 -79 30 -79 72v35h58v-25c0 -17 12 -27 31 -27h87c20 0 31 10 31 27v76c0 16 -12 27 -32 27h-36c-20 0 -36 -5 -53 -13l-24 -11l-58 18v183zM626 720
l-382 -720h-58l382 720h58zM781 290v-52c0 -23 -14 -42 -36 -54c24 -9 40 -30 40 -54v-60c0 -42 -32 -72 -79 -72h-114c-47 0 -79 30 -79 72v60c0 24 16 45 40 54c-22 12 -36 31 -36 54v52c0 42 33 72 80 72h105c47 0 79 -30 79 -72zM692 308h-85c-22 0 -32 -9 -32 -27v-44
c0 -20 8 -27 34 -27h81c25 0 33 7 33 27v44c0 18 -10 27 -31 27zM690 159h-81c-27 0 -38 -9 -38 -27v-53c0 -18 10 -27 31 -27h94c21 0 31 9 31 27v53c0 18 -11 27 -37 27z" />
    <glyph glyph-name="seveneighths" unicode="&#x215e;" horiz-adv-x="723" 
d="M293 677l-186 -317h-63l179 305h-202v55h272v-43zM527 720l-382 -720h-58l382 720h58zM682 290v-52c0 -23 -14 -42 -36 -54c24 -9 40 -30 40 -54v-60c0 -42 -32 -72 -79 -72h-114c-47 0 -79 30 -79 72v60c0 24 16 45 40 54c-22 12 -36 31 -36 54v52c0 42 33 72 80 72h105
c47 0 79 -30 79 -72zM593 308h-85c-22 0 -32 -9 -32 -27v-44c0 -20 8 -27 34 -27h81c25 0 33 7 33 27v44c0 18 -10 27 -31 27zM591 159h-81c-27 0 -38 -9 -38 -27v-53c0 -18 10 -27 31 -27h94c21 0 31 9 31 27v53c0 18 -11 27 -37 27z" />
    <glyph glyph-name="zero.dnom" horiz-adv-x="352" 
d="M233 -2h-114c-48 0 -79 28 -79 71v222c0 43 31 71 79 71h114c48 0 79 -28 79 -71v-222c0 -43 -31 -71 -79 -71zM98 282v-204c0 -15 11 -25 30 -25h96c19 0 30 10 30 25v204c0 15 -11 25 -30 25h-96c-19 0 -30 -10 -30 -25z" />
    <glyph glyph-name="one.dnom" horiz-adv-x="208" 
d="M94 0v300l-69 -24v50l80 34h47v-360h-58z" />
    <glyph glyph-name="two.dnom" horiz-adv-x="332" 
d="M97 254v26c0 17 11 27 31 27h82c20 0 31 -11 31 -28v-38c0 -15 -11 -19 -31 -25l-96 -35c-46 -17 -79 -30 -79 -72v-109h266v55h-208v44c0 15 12 19 31 25l96 35c46 17 79 30 79 72v59c0 42 -32 72 -79 72h-101c-47 0 -79 -30 -79 -72v-36h57z" />
    <glyph glyph-name="three.dnom" horiz-adv-x="335" 
d="M88 104v-25c0 -18 10 -27 31 -27h90c21 0 31 9 31 27v53c0 18 -11 27 -37 27h-86v51h86c25 0 33 7 33 27v44c0 18 -10 27 -31 27h-81c-22 0 -32 -9 -32 -27v-25h-58v34c0 42 33 72 80 72h101c47 0 79 -30 79 -72v-52c0 -23 -14 -42 -35 -54c23 -9 39 -30 39 -54v-60
c0 -42 -32 -72 -79 -72h-110c-47 0 -79 30 -79 72v34h58z" />
    <glyph glyph-name="four.dnom" horiz-adv-x="366" 
d="M339 79h-57v-79h-57v79h-193l-8 44l203 237h55v-229h57v-52zM94 131h131v146z" />
    <glyph glyph-name="five.dnom" horiz-adv-x="336" 
d="M40 360h253v-55h-195v-109l28 20c19 16 38 19 52 19h45c46 0 78 -30 78 -71v-94c0 -42 -32 -72 -79 -72h-107c-47 0 -79 30 -79 72v35h58v-25c0 -17 12 -27 31 -27h87c20 0 31 10 31 27v76c0 16 -12 27 -32 27h-36c-20 0 -36 -5 -53 -13l-24 -11l-58 18v183z" />
    <glyph glyph-name="six.dnom" horiz-adv-x="343" 
d="M242 259v21c0 17 -11 27 -31 27h-82c-19 0 -31 -10 -31 -27v-94l28 20c18 16 38 19 52 19h49c46 0 78 -30 78 -71v-84c0 -42 -32 -72 -79 -72h-107c-47 0 -79 30 -79 72v220c0 42 32 72 79 72h102c47 0 79 -30 79 -72v-31h-58zM98 151v-71c0 -17 12 -27 31 -27h87
c20 0 31 10 31 27v67c0 17 -12 27 -32 27h-41c-19 0 -35 -4 -52 -12z" />
    <glyph glyph-name="seven.dnom" horiz-adv-x="317" 
d="M293 317l-186 -317h-63l179 305h-202v55h272v-43z" />
    <glyph glyph-name="eight.dnom" horiz-adv-x="346" 
d="M305 290v-52c0 -23 -14 -42 -36 -54c24 -9 40 -30 40 -54v-60c0 -42 -32 -72 -79 -72h-114c-47 0 -79 30 -79 72v60c0 24 16 45 40 54c-22 12 -36 31 -36 54v52c0 42 33 72 80 72h105c47 0 79 -30 79 -72zM216 308h-85c-22 0 -32 -9 -32 -27v-44c0 -20 8 -27 34 -27h81
c25 0 33 7 33 27v44c0 18 -10 27 -31 27zM214 159h-81c-27 0 -38 -9 -38 -27v-53c0 -18 10 -27 31 -27h94c21 0 31 9 31 27v53c0 18 -11 27 -37 27z" />
    <glyph glyph-name="nine.dnom" horiz-adv-x="343" 
d="M101 101v-21c0 -17 12 -27 31 -27h82c20 0 31 10 31 27v97l-27 -19c-19 -17 -39 -19 -53 -19h-49c-46 0 -78 30 -78 71v80c0 42 32 72 79 72h107c47 0 79 -30 79 -72v-220c0 -42 -32 -72 -79 -72h-102c-47 0 -79 30 -79 72v31h58zM245 213v67c0 17 -11 27 -31 27h-87
c-19 0 -31 -10 -31 -27v-64c0 -16 12 -27 32 -27h41c19 0 36 5 52 13z" />
    <glyph glyph-name="zero.numr" horiz-adv-x="352" 
d="M233 358h-114c-48 0 -79 28 -79 71v222c0 43 31 71 79 71h114c48 0 79 -28 79 -71v-222c0 -43 -31 -71 -79 -71zM98 642v-204c0 -15 11 -25 30 -25h96c19 0 30 10 30 25v204c0 15 -11 25 -30 25h-96c-19 0 -30 -10 -30 -25z" />
    <glyph glyph-name="one.numr" horiz-adv-x="208" 
d="M94 360v300l-69 -24v50l80 34h47v-360h-58z" />
    <glyph glyph-name="two.numr" horiz-adv-x="332" 
d="M97 614v26c0 17 11 27 31 27h82c20 0 31 -11 31 -28v-38c0 -15 -11 -19 -31 -25l-96 -35c-46 -17 -79 -30 -79 -72v-109h266v55h-208v44c0 15 12 19 31 25l96 35c46 17 79 30 79 72v59c0 42 -32 72 -79 72h-101c-47 0 -79 -30 -79 -72v-36h57z" />
    <glyph glyph-name="three.numr" horiz-adv-x="335" 
d="M88 464v-25c0 -18 10 -27 31 -27h90c21 0 31 9 31 27v53c0 18 -11 27 -37 27h-86v51h86c25 0 33 7 33 27v44c0 18 -10 27 -31 27h-81c-22 0 -32 -9 -32 -27v-25h-58v34c0 42 33 72 80 72h101c47 0 79 -30 79 -72v-52c0 -23 -14 -42 -35 -54c23 -9 39 -30 39 -54v-60
c0 -42 -32 -72 -79 -72h-110c-47 0 -79 30 -79 72v34h58z" />
    <glyph glyph-name="four.numr" horiz-adv-x="366" 
d="M339 439h-57v-79h-57v79h-193l-8 44l203 237h55v-229h57v-52zM94 491h131v146z" />
    <glyph glyph-name="five.numr" horiz-adv-x="336" 
d="M40 720h253v-55h-195v-109l28 20c19 16 38 19 52 19h45c46 0 78 -30 78 -71v-94c0 -42 -32 -72 -79 -72h-107c-47 0 -79 30 -79 72v35h58v-25c0 -17 12 -27 31 -27h87c20 0 31 10 31 27v76c0 16 -12 27 -32 27h-36c-20 0 -36 -5 -53 -13l-24 -11l-58 18v183z" />
    <glyph glyph-name="six.numr" horiz-adv-x="343" 
d="M242 617v21c0 17 -11 27 -31 27h-82c-19 0 -31 -10 -31 -27v-94l28 20c18 16 38 19 52 19h49c46 0 78 -30 78 -71v-84c0 -42 -32 -72 -79 -72h-107c-47 0 -79 30 -79 72v220c0 42 32 72 79 72h102c47 0 79 -30 79 -72v-31h-58zM98 509v-71c0 -17 12 -27 31 -27h87
c20 0 31 10 31 27v67c0 17 -12 27 -32 27h-41c-19 0 -35 -4 -52 -12z" />
    <glyph glyph-name="seven.numr" horiz-adv-x="317" 
d="M293 677l-186 -317h-63l179 305h-202v55h272v-43z" />
    <glyph glyph-name="eight.numr" horiz-adv-x="346" 
d="M305 650v-52c0 -23 -14 -42 -36 -54c24 -9 40 -30 40 -54v-60c0 -42 -32 -72 -79 -72h-114c-47 0 -79 30 -79 72v60c0 24 16 45 40 54c-22 12 -36 31 -36 54v52c0 42 33 72 80 72h105c47 0 79 -30 79 -72zM216 668h-85c-22 0 -32 -9 -32 -27v-44c0 -20 8 -27 34 -27h81
c25 0 33 7 33 27v44c0 18 -10 27 -31 27zM214 519h-81c-27 0 -38 -9 -38 -27v-53c0 -18 10 -27 31 -27h94c21 0 31 9 31 27v53c0 18 -11 27 -37 27z" />
    <glyph glyph-name="nine.numr" horiz-adv-x="343" 
d="M101 461v-21c0 -17 12 -27 31 -27h82c20 0 31 10 31 27v97l-27 -19c-19 -17 -39 -19 -53 -19h-49c-46 0 -78 30 -78 71v80c0 42 32 72 79 72h107c47 0 79 -30 79 -72v-220c0 -42 -32 -72 -79 -72h-102c-47 0 -79 30 -79 72v31h58zM245 573v67c0 17 -11 27 -31 27h-87
c-19 0 -31 -10 -31 -27v-64c0 -16 12 -27 32 -27h41c19 0 36 5 52 13z" />
    <glyph glyph-name="zerosuperior" unicode="&#x2070;" horiz-adv-x="352" 
d="M233 468h-114c-48 0 -79 28 -79 71v222c0 43 31 71 79 71h114c48 0 79 -28 79 -71v-222c0 -43 -31 -71 -79 -71zM98 752v-204c0 -15 11 -25 30 -25h96c19 0 30 10 30 25v204c0 15 -11 25 -30 25h-96c-19 0 -30 -10 -30 -25z" />
    <glyph glyph-name="onesuperior" unicode="&#xb9;" horiz-adv-x="208" 
d="M94 470v300l-69 -24v50l80 34h47v-360h-58z" />
    <glyph glyph-name="twosuperior" unicode="&#xb2;" horiz-adv-x="332" 
d="M97 724v26c0 17 11 27 31 27h82c20 0 31 -11 31 -28v-38c0 -15 -11 -19 -31 -25l-96 -35c-46 -17 -79 -30 -79 -72v-109h266v55h-208v44c0 15 12 19 31 25l96 35c46 17 79 30 79 72v59c0 42 -32 72 -79 72h-101c-47 0 -79 -30 -79 -72v-36h57z" />
    <glyph glyph-name="threesuperior" unicode="&#xb3;" horiz-adv-x="335" 
d="M88 574v-25c0 -18 10 -27 31 -27h90c21 0 31 9 31 27v53c0 18 -11 27 -37 27h-86v51h86c25 0 33 7 33 27v44c0 18 -10 27 -31 27h-81c-22 0 -32 -9 -32 -27v-25h-58v34c0 42 33 72 80 72h101c47 0 79 -30 79 -72v-52c0 -23 -14 -42 -35 -54c23 -9 39 -30 39 -54v-60
c0 -42 -32 -72 -79 -72h-110c-47 0 -79 30 -79 72v34h58z" />
    <glyph glyph-name="foursuperior" unicode="&#x2074;" horiz-adv-x="366" 
d="M339 549h-57v-79h-57v79h-193l-8 44l203 237h55v-229h57v-52zM94 601h131v146z" />
    <glyph glyph-name="fivesuperior" unicode="&#x2075;" horiz-adv-x="336" 
d="M40 830h253v-55h-195v-109l28 20c19 16 38 19 52 19h45c46 0 78 -30 78 -71v-94c0 -42 -32 -72 -79 -72h-107c-47 0 -79 30 -79 72v35h58v-25c0 -17 12 -27 31 -27h87c20 0 31 10 31 27v76c0 16 -12 27 -32 27h-36c-20 0 -36 -5 -53 -13l-24 -11l-58 18v183z" />
    <glyph glyph-name="sixsuperior" unicode="&#x2076;" horiz-adv-x="343" 
d="M242 727v21c0 17 -11 27 -31 27h-82c-19 0 -31 -10 -31 -27v-94l28 20c18 16 38 19 52 19h49c46 0 78 -30 78 -71v-84c0 -42 -32 -72 -79 -72h-107c-47 0 -79 30 -79 72v220c0 42 32 72 79 72h102c47 0 79 -30 79 -72v-31h-58zM98 619v-71c0 -17 12 -27 31 -27h87
c20 0 31 10 31 27v67c0 17 -12 27 -32 27h-41c-19 0 -35 -4 -52 -12z" />
    <glyph glyph-name="sevensuperior" unicode="&#x2077;" horiz-adv-x="317" 
d="M293 787l-186 -317h-63l179 305h-202v55h272v-43z" />
    <glyph glyph-name="eightsuperior" unicode="&#x2078;" horiz-adv-x="346" 
d="M305 760v-52c0 -23 -14 -42 -36 -54c24 -9 40 -30 40 -54v-60c0 -42 -32 -72 -79 -72h-114c-47 0 -79 30 -79 72v60c0 24 16 45 40 54c-22 12 -36 31 -36 54v52c0 42 33 72 80 72h105c47 0 79 -30 79 -72zM216 778h-85c-22 0 -32 -9 -32 -27v-44c0 -20 8 -27 34 -27h81
c25 0 33 7 33 27v44c0 18 -10 27 -31 27zM214 629h-81c-27 0 -38 -9 -38 -27v-53c0 -18 10 -27 31 -27h94c21 0 31 9 31 27v53c0 18 -11 27 -37 27z" />
    <glyph glyph-name="ninesuperior" unicode="&#x2079;" horiz-adv-x="343" 
d="M101 571v-21c0 -17 12 -27 31 -27h82c20 0 31 10 31 27v97l-27 -19c-19 -17 -39 -19 -53 -19h-49c-46 0 -78 30 -78 71v80c0 42 32 72 79 72h107c47 0 79 -30 79 -72v-220c0 -42 -32 -72 -79 -72h-102c-47 0 -79 30 -79 72v31h58zM245 683v67c0 17 -11 27 -31 27h-87
c-19 0 -31 -10 -31 -27v-64c0 -16 12 -27 32 -27h41c19 0 36 5 52 13z" />
    <glyph glyph-name="braceleft" unicode="{" horiz-adv-x="394" 
d="M216 642v-189c0 -54 -31 -90 -71 -107c41 -21 72 -54 72 -107v-203c0 -45 27 -76 72 -76h39v-66h-39c-90 0 -144 54 -144 144v201c0 50 -22 76 -72 76h-17v62h17c50 0 72 26 72 76v187c0 90 54 144 144 144h39v-66h-39c-45 0 -73 -31 -73 -76z" />
    <glyph glyph-name="braceright" unicode="}" horiz-adv-x="394" 
d="M178 453v189c0 45 -28 76 -73 76h-39v66h39c90 0 144 -54 144 -144v-187c0 -50 22 -76 72 -76h17v-62h-17c-50 0 -72 -26 -72 -76v-201c0 -90 -54 -144 -144 -144h-39v66h39c45 0 72 31 72 76v203c0 53 31 86 72 107c-40 17 -71 53 -71 107z" />
    <glyph glyph-name="bracketleft" unicode="[" horiz-adv-x="353" 
d="M168 718v-758h119v-66h-191v890h191v-66h-119z" />
    <glyph glyph-name="bracketright" unicode="]" horiz-adv-x="353" 
d="M66 784h191v-890h-191v66h119v758h-119v66z" />
    <glyph glyph-name="parenleft" unicode="(" horiz-adv-x="345" 
d="M279 718h-39c-45 0 -72 -31 -72 -76v-606c0 -45 27 -76 72 -76h39v-66h-39c-90 0 -144 54 -144 144v602c0 90 54 144 144 144h39v-66z" />
    <glyph glyph-name="parenright" unicode=")" horiz-adv-x="345" 
d="M66 718h39c45 0 72 -31 72 -76v-606c0 -45 -27 -76 -72 -76h-39v-66h39c90 0 144 54 144 144v602c0 90 -54 144 -144 144h-39v-66z" />
    <glyph glyph-name="emdash" unicode="&#x2014;" horiz-adv-x="812" 
d="M748 362v-64h-684v64h684z" />
    <glyph glyph-name="endash" unicode="&#x2013;" horiz-adv-x="558" 
d="M494 363v-66h-430v66h430z" />
    <glyph glyph-name="hyphen" unicode="-" horiz-adv-x="424" 
d="M360 364v-68h-296v68h296z" />
    <glyph glyph-name="guillemotleft" unicode="&#xab;" horiz-adv-x="414" 
d="M228 559l-141 -208l141 -207h-72l-128 187v40l128 188h72zM378 559l-141 -208l141 -207h-72l-128 187v40l128 188h72z" />
    <glyph glyph-name="guillemotright" unicode="&#xbb;" horiz-adv-x="414" 
d="M236 371v-40l-128 -187h-72l141 207l-141 208h72zM386 371v-40l-128 -187h-72l141 207l-141 208h72z" />
    <glyph glyph-name="guilsinglleft" unicode="&#x2039;" horiz-adv-x="264" 
d="M228 559l-141 -208l141 -207h-72l-128 187v40l128 188h72z" />
    <glyph glyph-name="guilsinglright" unicode="&#x203a;" horiz-adv-x="264" 
d="M236 371v-40l-128 -187h-72l141 207l-141 208h72z" />
    <glyph glyph-name="quotedblbase" unicode="&#x201e;" horiz-adv-x="224" 
d="M156 98v-80c0 -24 -25 -60 -37 -84l-29 -57h-43l60 123h-39v98h88z" />
    <glyph glyph-name="quotedblleft" unicode="&#x201c;" horiz-adv-x="374" 
d="M68 499v80c0 24 25 60 37 84l29 57h43l-60 -123h39v-98h-88zM218 499v80c0 24 25 60 37 84l29 57h43l-60 -123h39v-98h-88z" />
    <glyph glyph-name="quotedblright" unicode="&#x201d;" horiz-adv-x="374" 
d="M156 720v-80c0 -24 -25 -60 -37 -84l-29 -57h-43l60 123h-39v98h88zM306 720v-80c0 -24 -25 -60 -37 -84l-29 -57h-43l60 123h-39v98h88z" />
    <glyph glyph-name="quoteleft" unicode="&#x2018;" horiz-adv-x="224" 
d="M68 499v80c0 24 25 60 37 84l29 57h43l-60 -123h39v-98h-88z" />
    <glyph glyph-name="quoteright" unicode="&#x2019;" horiz-adv-x="224" 
d="M156 720v-80c0 -24 -25 -60 -37 -84l-29 -57h-43l60 123h-39v98h88z" />
    <glyph glyph-name="quotesinglbase" unicode="&#x201a;" horiz-adv-x="224" 
d="M156 98v-80c0 -24 -25 -60 -37 -84l-29 -57h-43l60 123h-39v98h88z" />
    <glyph glyph-name="asterisk" unicode="*" horiz-adv-x="402" 
d="M326 430l-50 -36l-75 127l-75 -128l-50 37l98 111l-144 33l19 59l135 -60l-14 147h62l-14 -147l135 59l19 -59l-144 -32z" />
    <glyph glyph-name="backslash" unicode="\" horiz-adv-x="464" 
d="M442 -70h-66l-354 860h66z" />
    <glyph glyph-name="bullet" unicode="&#x2022;" horiz-adv-x="428" 
d="M268 280h-108c-21 0 -38 17 -38 38v108c0 21 17 38 38 38h108c21 0 38 -17 38 -38v-108c0 -21 -17 -38 -38 -38z" />
    <glyph glyph-name="colon" unicode=":" horiz-adv-x="224" 
d="M156 442h-88v98h88v-98zM156 0h-88v98h88v-98z" />
    <glyph glyph-name="comma" unicode="," horiz-adv-x="224" 
d="M156 98v-80c0 -24 -25 -60 -37 -84l-29 -57h-43l60 123h-39v98h88z" />
    <glyph glyph-name="ellipsis" unicode="&#x2026;" horiz-adv-x="644" 
d="M156 0h-88v98h88v-98zM366 0h-88v98h88v-98zM576 0h-88v98h88v-98z" />
    <glyph glyph-name="exclam" unicode="!" horiz-adv-x="296" 
d="M168 198h-40l-24 522h88zM190 0h-84v96h84v-96z" />
    <glyph glyph-name="exclamdown" unicode="&#xa1;" horiz-adv-x="296" 
d="M106 540h84v-96h-84v96zM128 342h40l24 -522h-88z" />
    <glyph glyph-name="numbersign" unicode="#" horiz-adv-x="759" 
d="M574 460l-53 -188h123v-60h-140l-59 -212h-67l59 212h-202l-59 -212h-67l59 212h-122v60h139l53 188h-123v60h140l56 200h67l-56 -200h202l56 200h67l-56 -200h122v-60h-139zM507 460h-202l-53 -188h202z" />
    <glyph glyph-name="period" unicode="." horiz-adv-x="224" 
d="M156 0h-88v98h88v-98z" />
    <glyph glyph-name="periodcentered" unicode="&#xb7;" horiz-adv-x="232" 
d="M160 281h-88v98h88v-98z" />
    <glyph glyph-name="question" unicode="?" horiz-adv-x="557" 
d="M174 724h191c90 0 144 -54 144 -144v-69c0 -82 -63 -112 -144 -152l-26 -13c-38 -19 -72 -33 -72 -66v-92h-72v90c0 80 58 101 144 144l26 13c40 20 72 31 72 76v71c0 45 -27 76 -72 76h-191c-45 0 -72 -31 -72 -76v-71h-72v69c0 90 54 144 144 144zM267 109v-109h-72
v109h72z" />
    <glyph glyph-name="questiondown" unicode="&#xbf;" horiz-adv-x="557" 
d="M290 431v109h72v-109h-72zM383 -184h-191c-90 0 -144 54 -144 144v69c0 82 63 112 144 152l26 13c38 19 72 33 72 66v92h72v-90c0 -80 -58 -101 -144 -144l-26 -13c-40 -20 -72 -31 -72 -76v-71c0 -45 27 -76 72 -76h191c45 0 72 31 72 76v71h72v-69
c0 -90 -54 -144 -144 -144z" />
    <glyph glyph-name="quotedbl" unicode="&#x22;" horiz-adv-x="379" 
d="M161 720l-26 -228h-41l-26 228h93zM311 720l-26 -228h-41l-26 228h93z" />
    <glyph glyph-name="quotesingle" unicode="'" horiz-adv-x="229" 
d="M161 720l-26 -228h-41l-26 228h93z" />
    <glyph glyph-name="semicolon" unicode=";" horiz-adv-x="224" 
d="M156 442h-88v98h88v-98zM156 98v-80c0 -24 -25 -60 -37 -84l-29 -57h-43l60 123h-39v98h88z" />
    <glyph glyph-name="slash" unicode="/" horiz-adv-x="464" 
d="M442 790l-354 -860h-66l354 860h66z" />
    <glyph glyph-name="underscore" unicode="_" horiz-adv-x="556" 
d="M550 -44v-56h-544v56h544z" />
    <glyph glyph-name="numbersign.tf" 
d="M488 460l-53 -188h109v-60h-126l-59 -212h-67l59 212h-150l-59 -212h-67l59 212h-108v60h125l53 188h-109v60h126l56 200h67l-56 -200h150l56 200h67l-56 -200h108v-60h-125zM421 460h-150l-53 -188h150z" />
    <glyph glyph-name="space" unicode=" " horiz-adv-x="264" 
 />
    <glyph glyph-name="florin" unicode="&#x192;" horiz-adv-x="406" 
d="M372 654h-73c-45 0 -72 -31 -72 -76v-138h135v-62h-135v-234c0 -90 -54 -144 -144 -144h-49v66h49c45 0 72 31 72 76v236h-114v62h114v136c0 90 54 144 144 144h73v-66z" />
    <glyph glyph-name="florin.tf" 
d="M518 654h-103c-45 0 -72 -31 -72 -76v-138h165v-62h-165v-234c0 -90 -54 -144 -144 -144h-79v66h79c45 0 72 31 72 76v236h-144v62h144v136c0 90 54 144 144 144h103v-66z" />
    <glyph glyph-name="cent" unicode="&#xa2;" horiz-adv-x="552" 
d="M414 454v28c0 46 -28 80 -74 80h-36v-398h36c46 0 74 34 74 80v28h70v-28c0 -90 -54 -144 -144 -144h-34v-100h-58v100h-34c-90 0 -144 54 -144 144v238c0 90 54 144 144 144h34v94h58v-94h34c90 0 144 -54 144 -144v-28h-70zM250 562h-36c-46 0 -74 -34 -74 -80v-238
c0 -46 28 -80 74 -80h36v398z" />
    <glyph glyph-name="currency" unicode="&#xa4;" horiz-adv-x="607" 
d="M500 444v-152c0 -32 -7 -59 -19 -81l76 -76l-45 -46l-77 77c-22 -12 -48 -18 -79 -18h-105c-31 0 -57 6 -79 18l-77 -77l-45 46l76 76c-12 22 -19 49 -19 81v152c0 31 6 57 18 79l-75 75l45 46l75 -75c22 12 49 19 81 19h105c32 0 59 -7 81 -19l75 75l45 -46l-75 -75
c12 -22 18 -48 18 -79zM251 212h105c46 0 74 34 74 80v152c0 46 -28 80 -74 80h-105c-46 0 -74 -34 -74 -80v-152c0 -46 28 -80 74 -80z" />
    <glyph glyph-name="dollar" unicode="$" horiz-adv-x="627" 
d="M344 394l64 -15c88 -21 144 -49 144 -144v-95c0 -90 -54 -144 -144 -144h-62v-88h-64v88h-62c-90 0 -144 54 -144 144v71h72v-73c0 -45 27 -80 72 -80h64v281l-62 15c-88 21 -144 49 -144 144v82c0 90 54 144 144 144h60v88h64v-88h52c90 0 144 -54 144 -144v-61h-72v63
c0 45 -27 80 -72 80h-54v-268zM284 662h-62c-45 0 -72 -35 -72 -80v-78c0 -61 35 -71 72 -80l62 -15v253zM480 138v91c0 61 -27 69 -72 80l-64 15v-266h64c45 0 72 35 72 80z" />
    <glyph glyph-name="Euro" unicode="&#x20ac;" horiz-adv-x="665" 
d="M523 504v78c0 45 -27 76 -72 76h-187c-45 0 -72 -31 -72 -76v-99h256v-64h-256v-110h256v-64h-256v-107c0 -45 27 -76 72 -76h187c45 0 72 31 72 76v78h72v-76c0 -90 -54 -144 -144 -144h-187c-90 0 -144 54 -144 144v105h-82v64h82v110h-82v64h82v97
c0 90 54 144 144 144h187c90 0 144 -54 144 -144v-76h-72z" />
    <glyph glyph-name="sterling" unicode="&#xa3;" horiz-adv-x="623" 
d="M559 66v-66h-521v66h52c19 0 30 11 30 30v220h-82v64h82v200c0 90 54 144 144 144h147c90 0 144 -54 144 -144v-76h-72v78c0 45 -27 76 -72 76h-147c-45 0 -72 -31 -72 -76v-202h216v-64h-216v-250h367z" />
    <glyph glyph-name="yen" unicode="&#xa5;" horiz-adv-x="602" 
d="M372 338h134v-62h-169v-60h169v-62h-169v-154h-72v154h-169v62h169v60h-169v62h134l-214 382h82l203 -369l203 369h82z" />
    <glyph glyph-name="cent.tf" 
d="M480 454v28c0 46 -28 80 -74 80h-55v-398h55c46 0 74 34 74 80v28h70v-28c0 -90 -54 -144 -144 -144h-54v-100h-58v100h-54c-90 0 -144 54 -144 144v238c0 90 54 144 144 144h54v94h58v-94h54c90 0 144 -54 144 -144v-28h-70zM295 562h-55c-46 0 -74 -34 -74 -80v-238
c0 -46 28 -80 74 -80h55v398z" />
    <glyph glyph-name="currency.tf" 
d="M526 448v-160c0 -30 -7 -56 -19 -77l76 -76l-45 -46l-77 77c-21 -12 -46 -18 -75 -18h-133c-29 0 -54 6 -75 18l-77 -77l-45 46l76 76c-12 21 -19 47 -19 77v160c0 29 6 54 18 75l-75 75l45 46l75 -75c21 12 47 19 77 19h133c30 0 56 -7 77 -19l75 75l45 -46l-75 -75
c12 -21 18 -46 18 -75zM257 212h125c46 0 74 34 74 80v152c0 46 -28 80 -74 80h-125c-46 0 -74 -34 -74 -80v-152c0 -46 28 -80 74 -80z" />
    <glyph glyph-name="dollar.tf" 
d="M351 394l64 -15c88 -21 144 -49 144 -144v-95c0 -90 -54 -144 -144 -144h-62v-88h-64v88h-62c-90 0 -144 54 -144 144v71h72v-73c0 -45 27 -80 72 -80h64v281l-62 15c-88 21 -144 49 -144 144v82c0 90 54 144 144 144h60v88h64v-88h52c90 0 144 -54 144 -144v-61h-72v63
c0 45 -27 80 -72 80h-54v-268zM291 662h-62c-45 0 -72 -35 -72 -80v-78c0 -61 35 -71 72 -80l62 -15v253zM487 138v91c0 61 -27 69 -72 80l-64 15v-266h64c45 0 72 35 72 80z" />
    <glyph glyph-name="Euro.tf" 
d="M513 504v78c0 45 -27 76 -72 76h-177c-45 0 -72 -31 -72 -76v-99h246v-64h-246v-110h246v-64h-246v-107c0 -45 27 -76 72 -76h177c45 0 72 31 72 76v78h72v-76c0 -90 -54 -144 -144 -144h-177c-90 0 -144 54 -144 144v105h-82v64h82v110h-82v64h82v97
c0 90 54 144 144 144h177c90 0 144 -54 144 -144v-76h-72z" />
    <glyph glyph-name="sterling.tf" 
d="M571 66v-66h-521v66h52c19 0 30 11 30 30v220h-82v64h82v200c0 90 54 144 144 144h147c90 0 144 -54 144 -144v-76h-72v78c0 50 -22 76 -72 76h-147c-50 0 -72 -26 -72 -76v-202h216v-64h-216v-250h367z" />
    <glyph glyph-name="yen.tf" 
d="M390 338h134v-62h-169v-60h169v-62h-169v-154h-72v154h-169v62h169v60h-169v62h134l-214 382h82l203 -369l203 369h82z" />
    <glyph glyph-name="asciitilde" unicode="~" horiz-adv-x="508" 
d="M133 269l20 59l186 -52c29 -8 50 2 60 30l30 86h-56l-20 -57l-185 50c-30 8 -51 -2 -61 -31l-28 -85h54z" />
    <glyph glyph-name="divide" unicode="&#xf7;" horiz-adv-x="508" 
d="M298 481h-88v98h88v-98zM66 401h376v-62h-376v62zM298 161h-88v98h88v-98z" />
    <glyph glyph-name="equal" unicode="=" horiz-adv-x="508" 
d="M442 492v-65h-376v65h376zM442 321v-65h-376v65h376z" />
    <glyph glyph-name="greater" unicode="&#x3e;" horiz-adv-x="508" 
d="M74 510l318 -147l-318 -146v-64l372 175v70l-372 176v-64z" />
    <glyph glyph-name="infinity" unicode="&#x221e;" horiz-adv-x="836" 
d="M525 552h93c86 0 140 -54 140 -140v-98c0 -86 -54 -140 -140 -140h-93c-50 0 -85 29 -107 57c-22 -28 -57 -57 -107 -57h-93c-86 0 -140 54 -140 140v98c0 86 54 140 140 140h93c50 0 85 -29 107 -57c22 28 57 57 107 57zM218 234h94c46 0 74 34 74 80v98
c0 46 -28 80 -74 80h-94c-46 0 -74 -34 -74 -80v-98c0 -46 28 -80 74 -80zM692 314v98c0 46 -28 80 -74 80h-94c-46 0 -74 -34 -74 -80v-98c0 -46 28 -80 74 -80h94c46 0 74 34 74 80z" />
    <glyph glyph-name="less" unicode="&#x3c;" horiz-adv-x="508" 
d="M62 398v-70l372 -175v64l-318 146l318 147v64z" />
    <glyph glyph-name="minus" unicode="&#x2212;" horiz-adv-x="508" 
d="M66 401h376v-62h-376v62z" />
    <glyph glyph-name="multiply" unicode="&#xd7;" horiz-adv-x="508" 
d="M296 334l131 -131l-42 -42l-130 130l-131 -132l-42 42l131 132l-131 131l42 42l130 -130l131 132l42 -42z" />
    <glyph glyph-name="notequal" unicode="&#x2260;" horiz-adv-x="508" 
d="M317 426l-58 -104h183v-66h-219l-53 -95h-64l53 95h-93v66h129l58 104h-187v66h223l49 88h64l-49 -88h89v-66h-125z" />
    <glyph glyph-name="percent" unicode="%" horiz-adv-x="636" 
d="M114 724h91c35 0 64 -29 64 -64v-152c0 -35 -29 -64 -64 -64h-91c-35 0 -64 29 -64 64v152c0 35 29 64 64 64zM537 720l-380 -720h-60l379 720h61zM215 515v139c0 11 -6 21 -17 21h-74c-12 0 -20 -10 -20 -21v-139c0 -12 8 -22 20 -22h74c11 0 17 10 17 22zM432 276h91
c35 0 64 -29 64 -64v-152c0 -35 -29 -64 -64 -64h-91c-35 0 -64 29 -64 64v152c0 35 29 64 64 64zM533 67v139c0 11 -6 21 -17 21h-74c-12 0 -20 -10 -20 -21v-139c0 -12 8 -22 20 -22h74c11 0 17 10 17 22z" />
    <glyph glyph-name="perthousand" unicode="&#x2030;" horiz-adv-x="906" 
d="M114 724h91c35 0 64 -29 64 -64v-152c0 -35 -29 -64 -64 -64h-91c-35 0 -64 29 -64 64v152c0 35 29 64 64 64zM537 720l-380 -720h-60l379 720h61zM215 515v139c0 11 -6 21 -17 21h-74c-12 0 -20 -10 -20 -21v-139c0 -12 8 -22 20 -22h74c11 0 17 10 17 22zM432 276h91
c35 0 64 -29 64 -64v-152c0 -35 -29 -64 -64 -64h-91c-35 0 -64 29 -64 64v152c0 35 29 64 64 64zM702 276h91c36 0 64 -29 64 -64v-152c0 -35 -28 -64 -64 -64h-91c-35 0 -64 29 -64 64v152c0 35 29 64 64 64zM533 67v139c0 11 -6 21 -17 21h-74c-12 0 -20 -10 -20 -21
v-139c0 -12 8 -22 20 -22h74c11 0 17 10 17 22zM803 67v139c0 11 -6 21 -17 21h-74c-12 0 -20 -10 -20 -21v-139c0 -12 8 -22 20 -22h74c11 0 17 10 17 22z" />
    <glyph glyph-name="plus" unicode="+" horiz-adv-x="508" 
d="M224 182v158h-158v60h158v158h60v-158h158v-60h-158v-158h-60z" />
    <glyph glyph-name="plusminus" unicode="&#xb1;" horiz-adv-x="508" 
d="M224 232v158h-158v60h158v158h60v-158h158v-60h-158v-158h-60zM66 182h376v-60h-376v60z" />
    <glyph glyph-name="ampersand" unicode="&#x26;" horiz-adv-x="658" 
d="M625 338h-81v-198c0 -90 -54 -144 -144 -144h-183c-90 0 -144 54 -144 144v122c0 55 36 96 74 108c-34 18 -66 53 -66 108v102c0 90 54 144 144 144h160c90 0 144 -54 144 -144v-63h-72v65c0 45 -27 76 -72 76h-160c-45 0 -72 -31 -72 -76v-105c0 -54 16 -74 78 -74h394
v-65zM472 338h-241c-65 0 -86 -28 -86 -74v-126c0 -45 27 -76 72 -76h183c45 0 72 31 72 76v200z" />
    <glyph glyph-name="asciicircum" unicode="^" horiz-adv-x="508" 
d="M213 720h82l125 -246h-64l-102 202l-102 -202h-64z" />
    <glyph glyph-name="at" unicode="@" horiz-adv-x="927" 
d="M238 724h451c90 0 144 -54 144 -144v-380c0 -90 -54 -144 -144 -144h-82l-20 72l-61 -47c-30 -23 -63 -29 -95 -29h-24c-90 0 -144 54 -144 144v166c0 90 54 144 144 144h24c32 0 65 -6 95 -29l61 -47l20 72h40v-400h42c65 0 92 33 92 98v380c0 65 -27 98 -92 98h-451
c-65 0 -92 -33 -92 -98v-600c0 -65 27 -98 92 -98h507v-46h-507c-90 0 -144 54 -144 144v600c0 90 54 144 144 144zM587 387l-52 37c-32 23 -65 28 -93 28h-41c-50 0 -78 -34 -78 -84v-178c0 -50 28 -84 78 -84h41c28 0 61 5 93 28l52 37v216z" />
    <glyph glyph-name="bar" unicode="|" horiz-adv-x="302" 
d="M122 787h58v-1003h-58v1003z" />
    <glyph glyph-name="brokenbar" unicode="&#xa6;" horiz-adv-x="302" 
d="M122 787h58v-396h-58v396zM180 -216h-58v396h58v-396z" />
    <glyph glyph-name="copyright" unicode="&#xa9;" horiz-adv-x="847" 
d="M238 724h371c90 0 144 -54 144 -144v-440c0 -90 -54 -144 -144 -144h-371c-90 0 -144 54 -144 144v440c0 90 54 144 144 144zM701 140v440c0 61 -31 98 -92 98h-371c-61 0 -92 -37 -92 -98v-440c0 -61 31 -98 92 -98h371c61 0 92 37 92 98zM370 586h106
c70 0 110 -40 110 -110v-46h-64v46c0 32 -12 52 -44 52h-110c-32 0 -44 -20 -44 -52v-232c0 -32 12 -52 44 -52h110c32 0 44 20 44 52v46h64v-46c0 -70 -40 -110 -110 -110h-106c-70 0 -110 40 -110 110v232c0 70 40 110 110 110z" />
    <glyph glyph-name="dagger" unicode="&#x2020;" horiz-adv-x="374" 
d="M334 480h-114v-480h-66v480h-114v60h114v180h66v-180h114v-60z" />
    <glyph glyph-name="daggerdbl" unicode="&#x2021;" horiz-adv-x="374" 
d="M220 480v-240h114v-60h-114v-180h-66v180h-114v60h114v240h-114v60h114v180h66v-180h114v-60h-114z" />
    <glyph glyph-name="degree" unicode="&#xb0;" horiz-adv-x="332" 
d="M218 508h-104c-25 0 -44 19 -44 44v126c0 25 19 44 44 44h104c25 0 44 -19 44 -44v-126c0 -25 -19 -44 -44 -44zM114 668v-106c0 -7 5 -12 12 -12h80c7 0 12 5 12 12v106c0 7 -5 12 -12 12h-80c-7 0 -12 -5 -12 -12z" />
    <glyph glyph-name="paragraph" unicode="&#xb6;" horiz-adv-x="715" 
d="M619 0h-72v654h-72v-654h-72v290h-196c-90 0 -144 54 -144 144v142c0 90 54 144 144 144h412v-720z" />
    <glyph glyph-name="registered" unicode="&#xae;" horiz-adv-x="414" 
d="M122 724h170c35 0 64 -29 64 -64v-236c0 -35 -29 -64 -64 -64h-170c-35 0 -64 29 -64 64v236c0 35 29 64 64 64zM329 424v236c0 12 -7 38 -37 38h-170c-30 0 -37 -26 -37 -38v-236c0 -12 7 -38 37 -38h170c30 0 37 26 37 38zM281 609v-44c0 -27 -18 -45 -42 -43l47 -88
h-29l-48 88h-49v-88h-27v218h105c27 0 43 -16 43 -43zM160 548h78c11 0 16 5 16 16v45c0 11 -5 17 -16 17h-78v-78z" />
    <glyph glyph-name="section" unicode="&#xa7;" horiz-adv-x="535" 
d="M398 572v20c0 42 -24 74 -66 74h-128c-42 0 -64 -32 -64 -74v-50c0 -35 24 -54 62 -60l161 -26c64 -10 112 -54 112 -116v-60c0 -47 -16 -83 -45 -105c24 -21 38 -49 38 -83v-56c0 -82 -48 -130 -130 -130h-148c-82 0 -130 48 -130 130v37h64v-35c0 -42 24 -74 66 -74
h148c42 0 64 32 64 74v54c0 31 -23 50 -62 56l-157 26c-64 11 -116 54 -116 116v62c0 47 16 83 45 105c-23 20 -38 48 -38 81v56c0 82 48 130 130 130h128c82 0 130 -48 130 -130v-22h-64zM195 234l164 -27c33 4 50 38 50 75v58c0 31 -23 50 -62 56l-168 28
c-30 -5 -46 -38 -46 -74v-56c0 -35 24 -54 62 -60z" />
    <glyph glyph-name="trademark" unicode="&#x2122;" horiz-adv-x="749" 
d="M307 680h-104v-320h-45v320h-103v40h252v-40zM694 720v-360h-41v297l-104 -241h-34l-106 241v-297h-41v360h50l113 -251l113 251h50z" />
    <glyph glyph-name="acute" unicode="&#xb4;" horiz-adv-x="597" 
d="M258 786h-48l90 144h87z" />
    <glyph glyph-name="breve" unicode="&#x2d8;" horiz-adv-x="618" 
d="M408 901v-51c0 -35 -29 -64 -64 -64h-70c-35 0 -64 29 -64 64v51h48v-47c0 -12 8 -22 20 -22h64c12 0 18 10 18 22v47h48z" />
    <glyph glyph-name="caron" unicode="&#x2c7;" horiz-adv-x="660" 
d="M294 786h72l114 120h-49l-101 -76l-101 76h-49z" />
    <glyph glyph-name="cedilla" unicode="&#xb8;" horiz-adv-x="565" 
d="M219 -208l-50 48h151c20 0 22 6 22 26v10c0 20 -2 26 -22 26h-123l50 98h54l-25 -50h36c50 0 84 -24 84 -74v-10c0 -50 -34 -74 -84 -74h-93z" />
    <glyph glyph-name="circumflex" unicode="&#x2c6;" horiz-adv-x="660" 
d="M229 786l101 76l101 -76h49l-114 120h-72l-114 -120h49z" />
    <glyph glyph-name="dieresis" unicode="&#xa8;" horiz-adv-x="640" 
d="M274 790h-78v100h78v-100zM444 790h-78v100h78v-100z" />
    <glyph glyph-name="dotaccent" unicode="&#x2d9;" horiz-adv-x="468" 
d="M274 794h-80v94h80v-94z" />
    <glyph glyph-name="grave" unicode="`" horiz-adv-x="603" 
d="M345 786h48l-90 144h-87z" />
    <glyph glyph-name="hungarumlaut" unicode="&#x2dd;" horiz-adv-x="750" 
d="M397 931l-115 -145h-72l115 145h72zM540 931l-115 -145h-72l115 145h72z" />
    <glyph glyph-name="macron" unicode="&#xaf;" horiz-adv-x="596" 
d="M426 856v-60h-256v60h256z" />
    <glyph glyph-name="ogonek" unicode="&#x2db;" horiz-adv-x="389" 
d="M237 0l-50 -72c-19 -27 -14 -40 9 -40h83v-56h-100c-49 0 -101 37 -58 98l50 70h66z" />
    <glyph glyph-name="ring" unicode="&#x2da;" horiz-adv-x="344" 
d="M220 786h-96c-17 0 -34 17 -34 34v86c0 17 17 34 34 34h96c17 0 34 -17 34 -34v-86c0 -17 -17 -34 -34 -34zM126 892v-58c0 -7 5 -12 12 -12h68c7 0 12 5 12 12v58c0 7 -5 12 -12 12h-68c-7 0 -12 -5 -12 -12z" />
    <glyph glyph-name="tilde" unicode="&#x2dc;" horiz-adv-x="610" 
d="M214 786l18 61l138 -60c28 -12 52 -1 58 26l22 96h-56l-19 -59l-136 58c-30 13 -53 1 -59 -27l-20 -95h54z" />
    <glyph glyph-name="commaaccentcomb" unicode="&#x326;" horiz-adv-x="0" 
d="M219 -70v-80c0 -24 -25 -60 -37 -84l-29 -57h-43l60 123h-39v98h88z" />
    </font>
</defs>
</svg>
