<?xml version="1.0" encoding="UTF-8" standalone="no"?>
<svg
   xmlns:dc="http://purl.org/dc/elements/1.1/"
   xmlns:cc="http://creativecommons.org/ns#"
   xmlns:rdf="http://www.w3.org/1999/02/22-rdf-syntax-ns#"
   xmlns:svg="http://www.w3.org/2000/svg"
   xmlns="http://www.w3.org/2000/svg"
   id="svg69"
   style="fill-rule:evenodd;clip-rule:evenodd;stroke-linejoin:round;stroke-miterlimit:2;"
   xml:space="preserve"
   version="1.1"
   viewBox="0 0 160 56"
   height="100%"
   width="100%"><metadata
   id="metadata75"><rdf:RDF><cc:Work
       rdf:about=""><dc:format>image/svg+xml</dc:format><dc:type
         rdf:resource="http://purl.org/dc/dcmitype/StillImage" /><dc:title></dc:title></cc:Work></rdf:RDF></metadata><defs
   id="defs73" />
    <g
   id="g14"
   transform="matrix(1,0,0,1,9,15.5)">
        <g
   id="g12">
            <g
   id="g10">
                <path
   id="path2"
   style="fill:white;fill-rule:nonzero;"
   d="M31.3,0.4L45.4,0.4L55.6,10.4L41.2,10.4L31.3,0.4Z" />
                <path
   id="path4"
   style="fill:white;fill-rule:nonzero;"
   d="M28.7,0.4L14.5,0.4L4.6,10.4L18.7,10.4L28.7,0.4Z" />
                <path
   id="path6"
   style="fill:white;fill-rule:nonzero;"
   d="M30.6,1.3L40.4,11.1L40.4,24.8L30.6,15.2L30.6,1.3Z" />
                <path
   id="path8"
   style="fill:white;fill-rule:nonzero;"
   d="M29.5,1.3L29.5,15.2L19.4,24.8L19.4,11.3L29.5,1.3Z" />
            </g>
        </g>
    </g>
    
    <g
   transform="matrix(1,0,0,1,-80.9905,15.6798)"
   id="prefix__Path_6225">
        <path
   id="path66"
   style="fill:white;fill-rule:nonzero;"
   d="M153.4,10.1C154.4,10.2 155.3,9.5 155.4,8.4L155.4,7L154.4,7L154.4,8.1C154.5,8.6 154.1,9.1 153.6,9.2L150.6,9.2C150.1,9.2 149.6,8.8 149.6,8.3L149.6,2C149.5,1.5 149.9,1 150.4,0.9L153.4,0.9C153.9,0.9 154.4,1.3 154.4,1.8L154.4,3L155.4,3L155.4,2C155.5,1 154.8,0.1 153.7,0L150.6,0C149.6,-0.1 148.7,0.6 148.6,1.7L148.6,8.1C148.5,9.1 149.2,10 150.3,10.1L153.4,10.1ZM159.4,2.5C158.4,2.4 157.6,3.2 157.5,4.2L157.5,8.2C157.4,9.2 158.2,10 159.2,10.1L161.4,10.1C162.4,10.2 163.2,9.4 163.3,8.4L163.3,4.4C163.4,3.4 162.6,2.6 161.6,2.5L159.4,2.5ZM162.4,8.2C162.5,8.7 162,9.3 161.5,9.3L159.5,9.3C159,9.3 158.5,8.8 158.5,8.3L158.5,4.4C158.4,3.9 158.9,3.3 159.4,3.3L161.4,3.3C161.9,3.3 162.4,3.8 162.4,4.3L162.4,8.2ZM170.3,10L171.2,10L171.2,4.4C171.3,3.4 170.5,2.6 169.5,2.5L168.6,2.5C168.1,2.5 167.5,2.7 167.1,3L166.3,3.5L166.3,2.5L165.4,2.5L165.4,10L166.3,10L166.3,4.2L167.1,3.7C167.6,3.4 168.1,3.2 168.6,3.2L169.1,3.2C169.6,3.2 170.1,3.7 170.1,4.2L170.1,4.3L170.3,10ZM177.9,4.7L178.8,4.7L178.8,4.4C178.9,3.5 178.3,2.7 177.3,2.6L175.2,2.6C174.3,2.5 173.5,3.1 173.4,4.1L173.4,4.9C173.4,5.9 173.9,6.4 175,6.5L177.2,6.9C177.8,7 178,7.1 178,7.7L178,8.4C178,9 177.8,9.5 177.1,9.5L175.1,9.5C174.5,9.5 174.2,9.1 174.2,8.4L174.2,7.8L173.3,7.8L173.3,8.3C173.2,9.2 173.8,10 174.8,10.1L177.2,10.1C178.1,10.2 178.9,9.6 179,8.6L179,7.6C179,6.6 178.5,6.1 177.4,6L175.2,5.6C174.6,5.5 174.4,5.4 174.4,4.8L174.4,4.4C174.4,3.8 174.7,3.3 175.3,3.3L177,3.3C177.6,3.3 177.9,3.7 177.9,4.4L177.9,4.7ZM181.9,6.5L186.7,6.5L186.7,4.4C186.8,3.4 186,2.6 185,2.5L182.8,2.5C181.8,2.4 181,3.2 180.9,4.2L180.9,8.2C180.8,9.2 181.6,10 182.6,10.1L184.7,10.1C185.7,10.2 186.5,9.4 186.6,8.4L186.6,7.7L185.7,7.7L185.7,8.2C185.8,8.7 185.3,9.3 184.8,9.3L182.9,9.3C182.4,9.3 181.9,8.8 181.9,8.3L181.9,6.5ZM184.7,3.4C185.2,3.4 185.7,3.9 185.7,4.4L185.7,5.8L181.9,5.8L181.9,4.4C181.8,3.9 182.3,3.3 182.8,3.3L182.9,3.3L184.7,3.4ZM192.7,3.4L192.7,2.5L192,2.5C191.5,2.5 190.9,2.7 190.5,3L189.7,3.5L189.7,2.5L188.8,2.5L188.8,10L189.7,10L189.7,4.3L190.5,3.8C191,3.5 191.5,3.3 192,3.3L192.7,3.3L192.7,3.4ZM199.8,2.6L198.8,2.6L196.7,9.4L194.6,2.6L193.6,2.6L196.1,10.1L197.3,10.1L199.8,2.6ZM203.1,2.5C202.1,2.4 201.3,3.2 201.2,4.2L201.2,4.6L202.1,4.6L202.1,4.4C202,3.9 202.5,3.3 203,3.3L204.7,3.3C205.2,3.3 205.7,3.8 205.7,4.3L205.7,5.9C204.9,5.7 204,5.7 203.2,5.7L202.8,5.7C201.8,5.6 201,6.4 200.9,7.4L200.9,8.4C200.8,9.4 201.6,10.2 202.6,10.3L203.6,10.3C204.1,10.3 204.7,10.1 205.1,9.8L205.9,9.3L205.9,10L206.8,10L206.8,4.4C206.9,3.4 206.1,2.6 205.1,2.5L203.1,2.5ZM205.8,6.3L205.8,8.4L205,8.9C204.5,9.2 204,9.4 203.5,9.4L202.8,9.4C202.3,9.4 201.8,8.9 201.8,8.4L201.8,7.6C201.7,7.1 202.2,6.5 202.7,6.5L202.8,6.5L205.8,6.3ZM210.6,3.4L213.1,3.4L213.1,2.6L210.6,2.6L210.6,0L209.7,0L209.7,2.5L208.4,2.5L208.4,3.3L209.7,3.3L209.7,8C209.6,9 210.4,9.8 211.4,9.9L213.2,9.9L213.2,9.2L211.7,9.2C211.2,9.2 210.7,8.7 210.7,8.2L210.7,8.1L210.6,3.4ZM216.6,2.5C215.6,2.4 214.8,3.2 214.7,4.2L214.7,8.2C214.6,9.2 215.4,10 216.4,10.1L218.6,10.1C219.6,10.2 220.4,9.4 220.5,8.4L220.5,4.4C220.6,3.4 219.8,2.6 218.8,2.5L216.6,2.5ZM219.5,8.2C219.6,8.7 219.1,9.3 218.6,9.3L216.6,9.3C216.1,9.3 215.6,8.8 215.6,8.3L215.6,4.4C215.5,3.9 216,3.3 216.5,3.3L218.5,3.3C219,3.3 219.5,3.8 219.5,4.3L219.5,8.2ZM226.6,3.4L226.6,2.5L225.9,2.5C225.4,2.5 224.8,2.7 224.4,3L223.6,3.5L223.6,2.5L222.7,2.5L222.7,10L223.6,10L223.6,4.3L224.4,3.8C224.9,3.5 225.4,3.3 225.9,3.3L226.6,3.4Z" />
    </g>
<g
   style="fill:#c6c6c6;fill-opacity:1"
   transform="matrix(0.7908812,0,0,0.76794706,67.711433,28.160005)"
   id="g1001"><g
     style="fill:#c6c6c6;fill-opacity:1"
     transform="translate(-35.31983,-58.4953)"
     id="layer1-7" /><g
     style="fill:#c6c6c6;fill-opacity:1"
     transform="translate(-35.31983,-58.4953)"
     id="layer2"><g
       style="fill:#c6c6c6;fill-opacity:1"
       id="g915"><path
         style="fill:#c6c6c6;fill-opacity:1;stroke:none;stroke-width:0.26458335"
         d="m 69.652782,58.560784 c -1.024967,0 -1.583804,-0.02508 -2.181966,0.503108 -0.610949,0.539493 -0.66525,1.075896 -0.669406,1.630899 -0.06906,9.224079 -0.02567,3.5e-5 0,9.224338 0.0029,1.055537 0.250052,1.322084 0.498792,1.585437 0.216578,0.229303 0.602972,0.467198 1.59158,0.454652 0.886505,-0.01125 1.199528,0 4.778002,0 0.408091,0 1.013076,-0.182497 1.46313,-0.586412 0.503875,-0.452221 0.651438,-0.997014 0.650412,-1.51837 l -0.0036,-4.682259 h -4.665822 v 1.056571 h 3.409576 c 0,3.215789 0.01357,2.377214 0,3.200139 -0.0088,0.532196 -0.145124,0.755211 -0.363599,0.950299 -0.231185,0.206438 -0.535834,0.356616 -0.953534,0.356616 h -3.59628 c -0.655688,0 -1.034643,-0.119348 -1.227466,-0.299768 -0.22307,-0.223067 -0.154837,-0.529717 -0.154837,-1.359072 v -7.594507 c 0,-0.450329 -0.0779,-1.041612 0.262046,-1.340895 0.246478,-0.216996 0.594016,-0.357217 1.004991,-0.357217 h 3.605181 c 0.343056,0 0.755597,0.08345 1.073613,0.367387 0.365495,0.326322 0.349885,0.729684 0.349885,0.984155 v 1.480582 h 1.293463 v -1.709806 c 0,-0.837388 -0.12796,-1.270775 -0.693497,-1.767335 -0.638329,-0.560459 -1.091698,-0.578544 -1.475744,-0.578543 z"
         id="path841" /><path
         style="fill:#c6c6c6;fill-opacity:1;stroke:none;stroke-width:0.26458338"
         d="m 99.9852,58.501 c 0,2.497006 0,0.443819 0,1.741122 v 2.35903 l -0.659393,-0.273884 c -0.525163,-0.218132 -1.11423,-0.424611 -2.316659,-0.423304 -1.117379,0.0012 -2.205839,-1.22e-4 -2.95847,0.592284 C 93.510096,62.921748 93.34,63.081927 93.34,64.348488 V 70.313 c 0,0.341275 0.01473,1.008765 0.715032,1.309686 0.55718,0.239421 1.338877,0.319496 2.391881,0.319496 1.292011,0 1.982333,-0.52845 2.647384,-0.939477 L 100.06,70.451832 v 1.49035 h 1.5127 V 64.705413 58.501 c -1.5875,0 0,0 -1.5875,0 z m -9.817749,-0.0057 c -0.380874,0 -0.821915,0.412876 -0.821915,0.79375 0,0.380874 0.441041,0.79375 0.821915,0.79375 0.380874,0 0.821915,-0.412876 0.821915,-0.79375 0,-0.380874 -0.441041,-0.79375 -0.821915,-0.79375 z m -41.511417,0.114642 h -1.386327 v 13.398434 h 7.711522 V 70.831001 H 48.65602 Z m 10.260872,0 h -1.398479 v 13.398434 h 1.398479 z m -20.70848,0 c -1.024967,0 -1.583804,-0.02508 -2.181966,0.503108 -0.610949,0.539493 -0.665249,1.075896 -0.669406,1.630899 -0.06906,9.224079 -0.02566,3.5e-5 0,9.224338 0.0029,1.055537 0.250052,1.322084 0.498792,1.585437 0.216578,0.229304 0.602973,0.467198 1.59158,0.454652 0.886505,-0.01125 1.199529,0 4.778002,0 0.408091,0 1.013077,-0.182497 1.46313,-0.586412 0.503875,-0.452221 0.651439,-0.997014 0.650412,-1.51837 l -0.0036,-1.841547 h -1.256249 c 0,2.016405 0.01357,0.593074 0,1.415999 -0.0088,0.532196 -0.145124,0.755211 -0.363598,0.950299 -0.231185,0.206438 -0.535834,0.356616 -0.953535,0.356616 h -3.59628 c -0.655688,0 -1.034642,-0.119348 -1.227466,-0.299768 -0.22307,-0.223067 -0.154836,-0.529717 -0.154836,-1.359072 v -7.594507 c 0,-0.450329 -0.0779,-1.041612 0.262046,-1.340895 0.246478,-0.216996 0.594016,-0.357217 1.00499,-0.357217 h 3.605181 c 0.343056,0 0.755597,0.08345 1.073613,0.367387 0.365496,0.326322 0.349885,0.729684 0.349885,0.984155 v 1.480582 h 1.293463 V 60.95577 c 0,-0.837388 -0.12796,-1.270775 -0.693496,-1.767335 -0.638305,-0.560459 -1.091674,-0.578543 -1.475719,-0.578543 z m 40.53564,4.10608 v 6.6857 c 0,1.675937 0.321163,1.94412 0.816905,2.291328 0.404926,0.283602 1.523357,0.327243 2.466008,0.271117 0.826817,-0.04923 1.391448,-0.330303 1.930754,-0.652748 l 1.222493,-0.730914 V 71.954 h 1.57581 v -9.238028 h -1.5875 v 6.556113 L 83.66389,69.897916 C 82.103037,70.547125 81.044814,70.894873 80.6608,70.523 80.301079,70.174656 80.358,69.308217 80.358,68.768698 v -6.052726 z m 10.6578,0 V 71.954 h 1.5875 V 62.715972 Z M 106.35,61.615161 c -0.39278,0 -0.88909,0.01365 -1.32689,0.408804 -0.46778,0.422207 -0.77564,0.803991 -0.77564,1.307849 v 7.182373 c 0,0.360126 0.15285,0.460318 0.5667,0.875785 0.35274,0.354114 0.65157,0.556629 2.17283,0.556342 1.667,-3.14e-4 0.3,0 1.967,-3.14e-4 0.46571,-8.8e-5 1.28741,0.119506 2.07944,-0.568616 0.73536,-0.638889 0.86134,-1.109529 0.86134,-1.850384 V 68.571413 H 110.604 c 0,0.688485 0.0107,8.3e-5 0,0.688485 -0.009,0.566323 0.009,0.842583 -0.41029,1.162318 -0.37193,0.283407 -0.54584,0.264003 -1.20771,0.272773 -0.50129,0.0066 0,0 -2.23459,0 -0.28444,0 -0.59238,-0.05394 -0.84165,-0.272773 -0.44454,-0.390261 -0.36833,-0.528342 -0.36833,-1.995996 v -1.635147 h 3.175 3.175 v -1.872236 c 0,-1.716755 -0.0135,-1.991765 -0.7736,-2.645834 -0.47409,-0.407924 -1.22253,-0.657842 -1.85783,-0.657842 z m 4.254,2.946075 v 1.171504 h -2.6813 -2.38125 l 0.004,-1.124479 c 0.003,-0.732883 -0.0395,-1.103571 0.36431,-1.574261 0.28612,-0.33348 0.59501,-0.337362 0.84165,-0.341384 0.26237,-0.0043 2.02089,-0.0021 2.23459,0 0.63342,0.0062 0.86242,0.08814 1.20771,0.341384 0.37684,0.276377 0.41029,1.092816 0.41029,1.527236 z M 99.950121,64.044 l 0.03508,5.327795 -1.305865,0.561724 c -1.870559,0.804693 -3.535031,0.674158 -3.781685,-0.317294 -0.07881,-0.31677 -0.01972,-3.149024 0,-4.748548 0.0073,-0.595087 0.0404,-0.950631 0.339514,-1.254185 0.269273,-0.273269 0.781902,-0.387085 1.771984,-0.382924 0.725015,0.003 1.796233,0.307376 2.940972,0.813432 z"
         id="path841-4" /></g></g></g></svg>